<svg xmlns="http://www.w3.org/2000/svg" viewBox="0 0 1100 1700" font-family="'Malgun Gothic', 'Apple SD Gothic Neo', sans-serif">
  <defs>
    <linearGradient id="headerGrad" x1="0%" y1="0%" x2="100%" y2="0%">
      <stop offset="0%" style="stop-color:#1a1a2e"/>
      <stop offset="100%" style="stop-color:#16213e"/>
    </linearGradient>
    <linearGradient id="cardGrad1" x1="0%" y1="0%" x2="100%" y2="100%">
      <stop offset="0%" style="stop-color:#0f3460;stop-opacity:1"/>
      <stop offset="100%" style="stop-color:#16213e;stop-opacity:1"/>
    </linearGradient>
    <filter id="shadow">
      <feDropShadow dx="0" dy="2" stdDeviation="4" flood-color="#00000040"/>
    </filter>
  </defs>

  <!-- Background -->
  <rect width="1100" height="1700" fill="#0d1117"/>

  <!-- Header -->
  <rect x="0" y="0" width="1100" height="110" fill="url(#headerGrad)"/>
  <text x="550" y="42" text-anchor="middle" fill="#e2e8f0" font-size="22" font-weight="bold">반대방향형 이상향 — 페르소나 기반 LLM 검증 보고서</text>
  <text x="550" y="68" text-anchor="middle" fill="#94a3b8" font-size="13">안 A+C 조합 (관심사 역이용 + 시대/문화 맥락) · gemini-2.5-flash · 6 페르소나 × 10회 = 60회</text>
  <text x="550" y="90" text-anchor="middle" fill="#64748b" font-size="12">dominant 반전 일관성 · 페르소나 다양성 · 수치 안정성(std) · 총 변화량</text>

  <!-- ── Summary Cards Row ── -->
  <!-- Card: 반전 일관성 -->
  <rect x="30" y="125" width="230" height="80" rx="10" fill="#0f3460" filter="url(#shadow)"/>
  <text x="145" y="152" text-anchor="middle" fill="#64748b" font-size="11">dominant 반전 일관성</text>
  <text x="145" y="183" text-anchor="middle" fill="#22c55e" font-size="32" font-weight="bold">60/60</text>
  <!-- Card: 다양성 -->
  <rect x="280" y="125" width="230" height="80" rx="10" fill="#0f3460" filter="url(#shadow)"/>
  <text x="395" y="152" text-anchor="middle" fill="#64748b" font-size="11">페르소나 평균 다양성</text>
  <text x="395" y="183" text-anchor="middle" fill="#3b82f6" font-size="32" font-weight="bold">9.7/10</text>
  <!-- Card: avg std -->
  <rect x="530" y="125" width="230" height="80" rx="10" fill="#0f3460" filter="url(#shadow)"/>
  <text x="645" y="152" text-anchor="middle" fill="#64748b" font-size="11">dominant 축 평균 std</text>
  <text x="645" y="183" text-anchor="middle" fill="#f59e0b" font-size="32" font-weight="bold">1.8</text>
  <!-- Card: avg diff -->
  <rect x="780" y="125" width="290" height="80" rx="10" fill="#0f3460" filter="url(#shadow)"/>
  <text x="925" y="152" text-anchor="middle" fill="#64748b" font-size="11">평균 총 변화량</text>
  <text x="925" y="183" text-anchor="middle" fill="#a78bfa" font-size="32" font-weight="bold">283.5</text>

  <!-- ── Section: 케이스별 결과 ── -->
  <text x="30" y="236" fill="#94a3b8" font-size="14" font-weight="bold">케이스별 결과</text>
  <line x1="30" y1="242" x2="1070" y2="242" stroke="#1e293b" stroke-width="1"/>

  <!-- Helper: bar chart for each case -->
  <!-- Case 1: 실용적 성취자 -->
  <rect x="30" y="252" width="490" height="185" rx="8" fill="#111827" filter="url(#shadow)"/>
  <text x="50" y="276" fill="#e2e8f0" font-size="13" font-weight="bold">① 실용적 성취자</text>
  <text x="340" y="276" fill="#94a3b8" font-size="11">dominant: PO=78</text>
  <text x="460" y="276" fill="#22c55e" font-size="11">10/10 ✓</text>
  <!-- axis bars -->
  <!-- IC: 45→80 -->
  <text x="50" y="298" fill="#64748b" font-size="10">IC</text>
  <rect x="70" y="287" width="90" height="10" rx="3" fill="#1e3a5f"/>
  <rect x="70" y="287" width="90" height="10" rx="3" fill="#3b82f6" opacity="0.4"/>
  <rect x="70" y="287" width="160" height="10" rx="3" fill="#3b82f6"/>
  <text x="238" y="297" fill="#94a3b8" font-size="10">45→80 (+35)</text>
  <!-- SI: 60→53 -->
  <text x="50" y="315" fill="#64748b" font-size="10">SI</text>
  <rect x="70" y="304" width="120" height="10" rx="3" fill="#3b82f6" opacity="0.3"/>
  <rect x="70" y="304" width="106" height="10" rx="3" fill="#94a3b8"/>
  <text x="238" y="314" fill="#94a3b8" font-size="10">60→53 (-7)</text>
  <!-- DI: 55→83 -->
  <text x="50" y="332" fill="#64748b" font-size="10">DI</text>
  <rect x="70" y="321" width="110" height="10" rx="3" fill="#3b82f6" opacity="0.3"/>
  <rect x="70" y="321" width="166" height="10" rx="3" fill="#3b82f6"/>
  <text x="238" y="331" fill="#94a3b8" font-size="10">55→83 (+28)</text>
  <!-- PO: 78→19 (dominant) -->
  <text x="50" y="349" fill="#ef4444" font-size="10" font-weight="bold">PO</text>
  <rect x="70" y="338" width="156" height="10" rx="3" fill="#ef4444" opacity="0.3"/>
  <rect x="70" y="338" width="38" height="10" rx="3" fill="#ef4444"/>
  <text x="238" y="348" fill="#ef4444" font-size="10" font-weight="bold">78→19 (-59) std=1.6</text>
  <!-- EC: 40→80 -->
  <text x="50" y="366" fill="#64748b" font-size="10">EC</text>
  <rect x="70" y="355" width="80" height="10" rx="3" fill="#3b82f6" opacity="0.3"/>
  <rect x="70" y="355" width="160" height="10" rx="3" fill="#10b981"/>
  <text x="238" y="365" fill="#94a3b8" font-size="10">40→80 (+40)</text>
  <!-- CE: 45→89 -->
  <text x="50" y="383" fill="#64748b" font-size="10">CE</text>
  <rect x="70" y="372" width="90" height="10" rx="3" fill="#3b82f6" opacity="0.3"/>
  <rect x="70" y="372" width="178" height="10" rx="3" fill="#10b981"/>
  <text x="238" y="382" fill="#94a3b8" font-size="10">45→89 (+44)</text>
  <!-- stats -->
  <text x="50" y="408" fill="#64748b" font-size="10">다양성 10/10 · 총 변화량 240.7</text>
  <text x="50" y="424" fill="#64748b" font-size="10">예) 19세기 낭만주의 유랑 예술가 · 고려 시대 자연 친화적 유랑 시인</text>

  <!-- Case 2: 지적 탐험가 -->
  <rect x="540" y="252" width="530" height="185" rx="8" fill="#111827" filter="url(#shadow)"/>
  <text x="560" y="276" fill="#e2e8f0" font-size="13" font-weight="bold">② 지적 탐험가</text>
  <text x="840" y="276" fill="#94a3b8" font-size="11">dominant: IC=82, DI=78</text>
  <text x="1050" y="276" fill="#22c55e" font-size="11">10/10 ✓</text>
  <!-- IC: 82→21 dominant -->
  <text x="560" y="298" fill="#ef4444" font-size="10" font-weight="bold">IC</text>
  <rect x="580" y="287" width="164" height="10" rx="3" fill="#ef4444" opacity="0.3"/>
  <rect x="580" y="287" width="42" height="10" rx="3" fill="#ef4444"/>
  <text x="752" y="297" fill="#ef4444" font-size="10" font-weight="bold">82→21 (-61) std=2.2</text>
  <!-- DI: 78→25 -->
  <text x="560" y="315" fill="#ef4444" font-size="10" font-weight="bold">DI</text>
  <rect x="580" y="304" width="156" height="10" rx="3" fill="#ef4444" opacity="0.3"/>
  <rect x="580" y="304" width="49" height="10" rx="3" fill="#ef4444"/>
  <text x="752" y="314" fill="#ef4444" font-size="10" font-weight="bold">78→25 (-54) std=2.7</text>
  <!-- SA: 45→82 -->
  <text x="560" y="332" fill="#64748b" font-size="10">SA</text>
  <rect x="580" y="321" width="90" height="10" rx="3" fill="#3b82f6" opacity="0.3"/>
  <rect x="580" y="321" width="164" height="10" rx="3" fill="#10b981"/>
  <text x="752" y="331" fill="#94a3b8" font-size="10">45→82 (+37)</text>
  <!-- PO: 40→81 -->
  <text x="560" y="349" fill="#64748b" font-size="10">PO</text>
  <rect x="580" y="338" width="80" height="10" rx="3" fill="#3b82f6" opacity="0.3"/>
  <rect x="580" y="338" width="162" height="10" rx="3" fill="#10b981"/>
  <text x="752" y="348" fill="#94a3b8" font-size="10">40→81 (+41)</text>
  <!-- EC: 35→82 -->
  <text x="560" y="366" fill="#64748b" font-size="10">EC</text>
  <rect x="580" y="355" width="70" height="10" rx="3" fill="#3b82f6" opacity="0.3"/>
  <rect x="580" y="355" width="164" height="10" rx="3" fill="#10b981"/>
  <text x="752" y="365" fill="#94a3b8" font-size="10">35→82 (+47)</text>
  <!-- ER: 40→84 -->
  <text x="560" y="383" fill="#64748b" font-size="10">ER</text>
  <rect x="580" y="372" width="80" height="10" rx="3" fill="#3b82f6" opacity="0.3"/>
  <rect x="580" y="372" width="168" height="10" rx="3" fill="#10b981"/>
  <text x="752" y="382" fill="#94a3b8" font-size="10">40→84 (+44)</text>
  <text x="560" y="408" fill="#64748b" font-size="10">다양성 10/10 · 총 변화량 315.4</text>
  <text x="560" y="424" fill="#64748b" font-size="10">예) 1920년대 재즈 클럽 밴드 리더 · 1980년대 롤러스케이트장 DJ</text>

  <!-- Case 3: 감성 창조자 -->
  <rect x="30" y="450" width="490" height="185" rx="8" fill="#111827" filter="url(#shadow)"/>
  <text x="50" y="474" fill="#e2e8f0" font-size="13" font-weight="bold">③ 감성 창조자</text>
  <text x="310" y="474" fill="#94a3b8" font-size="11">dominant: CE=85, EC=80</text>
  <text x="460" y="474" fill="#22c55e" font-size="11">10/10 ✓</text>
  <!-- CE: 85→15 -->
  <text x="50" y="496" fill="#ef4444" font-size="10" font-weight="bold">CE</text>
  <rect x="70" y="485" width="170" height="10" rx="3" fill="#ef4444" opacity="0.3"/>
  <rect x="70" y="485" width="30" height="10" rx="3" fill="#ef4444"/>
  <text x="248" y="495" fill="#ef4444" font-size="10" font-weight="bold">85→15 (-70) std=0.9 🏆</text>
  <!-- EC: 80→19 -->
  <text x="50" y="513" fill="#ef4444" font-size="10" font-weight="bold">EC</text>
  <rect x="70" y="502" width="160" height="10" rx="3" fill="#ef4444" opacity="0.3"/>
  <rect x="70" y="502" width="37" height="10" rx="3" fill="#ef4444"/>
  <text x="248" y="512" fill="#ef4444" font-size="10" font-weight="bold">80→19 (-62) std=2.3</text>
  <!-- IC: 45→83 -->
  <text x="50" y="530" fill="#64748b" font-size="10">IC</text>
  <rect x="70" y="519" width="90" height="10" rx="3" fill="#3b82f6" opacity="0.3"/>
  <rect x="70" y="519" width="165" height="10" rx="3" fill="#10b981"/>
  <text x="248" y="529" fill="#94a3b8" font-size="10">45→83 (+38)</text>
  <!-- SI: 40→83 -->
  <text x="50" y="547" fill="#64748b" font-size="10">SI</text>
  <rect x="70" y="536" width="80" height="10" rx="3" fill="#3b82f6" opacity="0.3"/>
  <rect x="70" y="536" width="165" height="10" rx="3" fill="#10b981"/>
  <text x="248" y="546" fill="#94a3b8" font-size="10">40→83 (+43)</text>
  <!-- PO: 30→89 -->
  <text x="50" y="564" fill="#64748b" font-size="10">PO</text>
  <rect x="70" y="553" width="60" height="10" rx="3" fill="#3b82f6" opacity="0.3"/>
  <rect x="70" y="553" width="179" height="10" rx="3" fill="#10b981"/>
  <text x="248" y="563" fill="#94a3b8" font-size="10">30→89 (+59)</text>
  <!-- DI: 50→80 -->
  <text x="50" y="581" fill="#64748b" font-size="10">DI</text>
  <rect x="70" y="570" width="100" height="10" rx="3" fill="#3b82f6" opacity="0.3"/>
  <rect x="70" y="570" width="160" height="10" rx="3" fill="#10b981"/>
  <text x="248" y="580" fill="#94a3b8" font-size="10">50→80 (+30)</text>
  <text x="50" y="606" fill="#64748b" font-size="10">다양성 9/10 · 총 변화량 347.0 🏆</text>
  <text x="50" y="622" fill="#64748b" font-size="10">예) 계몽주의 이성적 학자 · 산업혁명 정밀 기계공</text>

  <!-- Case 4: 사회적 공감자 -->
  <rect x="540" y="450" width="530" height="185" rx="8" fill="#111827" filter="url(#shadow)"/>
  <text x="560" y="474" fill="#e2e8f0" font-size="13" font-weight="bold">④ 사회적 공감자</text>
  <text x="840" y="474" fill="#94a3b8" font-size="11">dominant: SA=82</text>
  <text x="1050" y="474" fill="#22c55e" font-size="11">10/10 ✓</text>
  <!-- SA: 82→19 -->
  <text x="560" y="496" fill="#ef4444" font-size="10" font-weight="bold">SA</text>
  <rect x="580" y="485" width="164" height="10" rx="3" fill="#ef4444" opacity="0.3"/>
  <rect x="580" y="485" width="37" height="10" rx="3" fill="#ef4444"/>
  <text x="752" y="495" fill="#ef4444" font-size="10" font-weight="bold">82→19 (-63) std=1.6</text>
  <!-- EC: 70→31 -->
  <text x="560" y="513" fill="#ef4444" font-size="10">EC</text>
  <rect x="580" y="502" width="140" height="10" rx="3" fill="#ef4444" opacity="0.3"/>
  <rect x="580" y="502" width="61" height="10" rx="3" fill="#f97316"/>
  <text x="752" y="512" fill="#f97316" font-size="10">70→31 (-40)</text>
  <!-- SI: 45→73 -->
  <text x="560" y="530" fill="#64748b" font-size="10">SI</text>
  <rect x="580" y="519" width="90" height="10" rx="3" fill="#3b82f6" opacity="0.3"/>
  <rect x="580" y="519" width="146" height="10" rx="3" fill="#10b981"/>
  <text x="752" y="529" fill="#94a3b8" font-size="10">45→73 (+28)</text>
  <!-- DI: 45→80 -->
  <text x="560" y="547" fill="#64748b" font-size="10">DI</text>
  <rect x="580" y="536" width="90" height="10" rx="3" fill="#3b82f6" opacity="0.3"/>
  <rect x="580" y="536" width="159" height="10" rx="3" fill="#10b981"/>
  <text x="752" y="546" fill="#94a3b8" font-size="10">45→80 (+35)</text>
  <!-- PO: 40→68 -->
  <text x="560" y="564" fill="#64748b" font-size="10">PO</text>
  <rect x="580" y="553" width="80" height="10" rx="3" fill="#3b82f6" opacity="0.3"/>
  <rect x="580" y="553" width="136" height="10" rx="3" fill="#10b981"/>
  <text x="752" y="563" fill="#94a3b8" font-size="10">40→68 (+28)</text>
  <!-- CE: 40→69 -->
  <text x="560" y="581" fill="#64748b" font-size="10">CE</text>
  <rect x="580" y="570" width="80" height="10" rx="3" fill="#3b82f6" opacity="0.3"/>
  <rect x="580" y="570" width="138" height="10" rx="3" fill="#10b981"/>
  <text x="752" y="580" fill="#94a3b8" font-size="10">40→69 (+29)</text>
  <text x="560" y="606" fill="#64748b" font-size="10">다양성 10/10 · 총 변화량 248.0</text>
  <text x="560" y="622" fill="#64748b" font-size="10">예) 1920년대 은둔형 수집가 · 17세기 네덜란드 독립 장인</text>

  <!-- Case 5: 가벼운 소비자 -->
  <rect x="30" y="648" width="490" height="185" rx="8" fill="#111827" filter="url(#shadow)"/>
  <text x="50" y="672" fill="#e2e8f0" font-size="13" font-weight="bold">⑤ 가벼운 소비자</text>
  <text x="310" y="672" fill="#94a3b8" font-size="11">dominant: ER=72</text>
  <text x="460" y="672" fill="#22c55e" font-size="11">10/10 ✓</text>
  <!-- ER: 72→17 -->
  <text x="50" y="694" fill="#ef4444" font-size="10" font-weight="bold">ER</text>
  <rect x="70" y="683" width="144" height="10" rx="3" fill="#ef4444" opacity="0.3"/>
  <rect x="70" y="683" width="35" height="10" rx="3" fill="#ef4444"/>
  <text x="248" y="693" fill="#ef4444" font-size="10" font-weight="bold">72→17 (-55) std=1.6</text>
  <!-- IC: 30→88 -->
  <text x="50" y="711" fill="#64748b" font-size="10">IC</text>
  <rect x="70" y="700" width="60" height="10" rx="3" fill="#3b82f6" opacity="0.3"/>
  <rect x="70" y="700" width="175" height="10" rx="3" fill="#10b981"/>
  <text x="248" y="710" fill="#94a3b8" font-size="10">30→88 (+58) std=1.8</text>
  <!-- DI: 30→89 -->
  <text x="50" y="728" fill="#64748b" font-size="10">DI</text>
  <rect x="70" y="717" width="60" height="10" rx="3" fill="#3b82f6" opacity="0.3"/>
  <rect x="70" y="717" width="178" height="10" rx="3" fill="#10b981"/>
  <text x="248" y="727" fill="#94a3b8" font-size="10">30→89 (+59) std=1.6</text>
  <!-- SI: 35→84 -->
  <text x="50" y="745" fill="#64748b" font-size="10">SI</text>
  <rect x="70" y="734" width="70" height="10" rx="3" fill="#3b82f6" opacity="0.3"/>
  <rect x="70" y="734" width="167" height="10" rx="3" fill="#10b981"/>
  <text x="248" y="744" fill="#94a3b8" font-size="10">35→84 (+49)</text>
  <!-- CE: 40→78 -->
  <text x="50" y="762" fill="#64748b" font-size="10">CE</text>
  <rect x="70" y="751" width="80" height="10" rx="3" fill="#3b82f6" opacity="0.3"/>
  <rect x="70" y="751" width="156" height="10" rx="3" fill="#10b981"/>
  <text x="248" y="761" fill="#94a3b8" font-size="10">40→78 (+38)</text>
  <!-- EC: 55→33 -->
  <text x="50" y="779" fill="#64748b" font-size="10">EC</text>
  <rect x="70" y="768" width="110" height="10" rx="3" fill="#f97316" opacity="0.3"/>
  <rect x="70" y="768" width="65" height="10" rx="3" fill="#f97316"/>
  <text x="248" y="778" fill="#94a3b8" font-size="10">55→33 (-22)</text>
  <text x="50" y="804" fill="#64748b" font-size="10">다양성 9/10 · 총 변화량 332.2</text>
  <text x="50" y="820" fill="#64748b" font-size="10">예) 중세 수도원 필사가 · 17세기 금욕적인 연금술사</text>

  <!-- Case 6: 균형 추구자 -->
  <rect x="540" y="648" width="530" height="185" rx="8" fill="#111827" filter="url(#shadow)"/>
  <text x="560" y="672" fill="#e2e8f0" font-size="13" font-weight="bold">⑥ 균형 추구자</text>
  <text x="840" y="672" fill="#94a3b8" font-size="11">dominant: DI=55 (편향 없음)</text>
  <text x="1050" y="672" fill="#22c55e" font-size="11">10/10 ✓</text>
  <!-- SA: 50→19 -->
  <text x="560" y="694" fill="#ef4444" font-size="10">SA</text>
  <rect x="580" y="683" width="100" height="10" rx="3" fill="#ef4444" opacity="0.3"/>
  <rect x="580" y="683" width="37" height="10" rx="3" fill="#ef4444"/>
  <text x="752" y="693" fill="#ef4444" font-size="10">50→19 (-32) std=4.5</text>
  <!-- DI: 55→21 -->
  <text x="560" y="711" fill="#ef4444" font-size="10">DI</text>
  <rect x="580" y="700" width="110" height="10" rx="3" fill="#ef4444" opacity="0.3"/>
  <rect x="580" y="700" width="42" height="10" rx="3" fill="#ef4444"/>
  <text x="752" y="710" fill="#ef4444" font-size="10">55→21 (-34) std=2.0</text>
  <!-- EC: 53→21 -->
  <text x="560" y="728" fill="#f97316" font-size="10">EC</text>
  <rect x="580" y="717" width="106" height="10" rx="3" fill="#f97316" opacity="0.3"/>
  <rect x="580" y="717" width="41" height="10" rx="3" fill="#f97316"/>
  <text x="752" y="727" fill="#f97316" font-size="10">53→21 (-32)</text>
  <!-- SI: 48→80 -->
  <text x="560" y="745" fill="#64748b" font-size="10">SI</text>
  <rect x="580" y="734" width="96" height="10" rx="3" fill="#3b82f6" opacity="0.3"/>
  <rect x="580" y="734" width="160" height="10" rx="3" fill="#10b981"/>
  <text x="752" y="744" fill="#94a3b8" font-size="10">48→80 (+32)</text>
  <!-- PO: 47→82 -->
  <text x="560" y="762" fill="#64748b" font-size="10">PO</text>
  <rect x="580" y="751" width="94" height="10" rx="3" fill="#3b82f6" opacity="0.3"/>
  <rect x="580" y="751" width="164" height="10" rx="3" fill="#10b981"/>
  <text x="752" y="761" fill="#94a3b8" font-size="10">47→82 (+35)</text>
  <!-- IC: 52→63 -->
  <text x="560" y="779" fill="#64748b" font-size="10">IC</text>
  <rect x="580" y="768" width="104" height="10" rx="3" fill="#3b82f6" opacity="0.3"/>
  <rect x="580" y="768" width="126" height="10" rx="3" fill="#3b82f6"/>
  <text x="752" y="778" fill="#94a3b8" font-size="10">52→63 (+11) std=29.3 ⚠️</text>
  <text x="560" y="804" fill="#64748b" font-size="10">다양성 10/10 · 총 변화량 217.7</text>
  <text x="560" y="820" fill="#64748b" font-size="10">예) 냉전 시대 비밀 연구원 · 산업혁명 고정밀 시계공</text>

  <!-- ── 종합 비교 테이블 ── -->
  <text x="30" y="864" fill="#94a3b8" font-size="14" font-weight="bold">종합 비교</text>
  <line x1="30" y1="870" x2="1070" y2="870" stroke="#1e293b" stroke-width="1"/>

  <!-- Table header -->
  <rect x="30" y="878" width="1040" height="30" rx="4" fill="#1e293b"/>
  <text x="130" y="898" text-anchor="middle" fill="#94a3b8" font-size="11" font-weight="bold">페르소나</text>
  <text x="310" y="898" text-anchor="middle" fill="#94a3b8" font-size="11" font-weight="bold">dominant 반전</text>
  <text x="460" y="898" text-anchor="middle" fill="#94a3b8" font-size="11" font-weight="bold">다양성</text>
  <text x="580" y="898" text-anchor="middle" fill="#94a3b8" font-size="11" font-weight="bold">dominant std</text>
  <text x="720" y="898" text-anchor="middle" fill="#94a3b8" font-size="11" font-weight="bold">총 변화량</text>
  <text x="900" y="898" text-anchor="middle" fill="#94a3b8" font-size="11" font-weight="bold">평가</text>

  <!-- Row 1 -->
  <rect x="30" y="908" width="1040" height="28" rx="2" fill="#0d1117"/>
  <text x="130" y="927" text-anchor="middle" fill="#e2e8f0" font-size="11">실용적 성취자</text>
  <text x="310" y="927" text-anchor="middle" fill="#22c55e" font-size="11">10/10 ✓</text>
  <text x="460" y="927" text-anchor="middle" fill="#22c55e" font-size="11">10/10</text>
  <text x="580" y="927" text-anchor="middle" fill="#22c55e" font-size="11">1.6</text>
  <rect x="660" y="914" width="120" height="12" rx="3" fill="#1e293b"/>
  <rect x="660" y="914" width="96" height="12" rx="3" fill="#3b82f6" opacity="0.7"/>
  <text x="720" y="927" text-anchor="middle" fill="#e2e8f0" font-size="11">240.7</text>
  <text x="900" y="927" text-anchor="middle" fill="#fbbf24" font-size="14">★★★★★</text>

  <!-- Row 2 -->
  <rect x="30" y="936" width="1040" height="28" rx="2" fill="#111827"/>
  <text x="130" y="955" text-anchor="middle" fill="#e2e8f0" font-size="11">지적 탐험가</text>
  <text x="310" y="955" text-anchor="middle" fill="#22c55e" font-size="11">10/10 ✓</text>
  <text x="460" y="955" text-anchor="middle" fill="#22c55e" font-size="11">10/10</text>
  <text x="580" y="955" text-anchor="middle" fill="#22c55e" font-size="11">2.2</text>
  <rect x="660" y="942" width="120" height="12" rx="3" fill="#1e293b"/>
  <rect x="660" y="942" width="126" height="12" rx="3" fill="#3b82f6" opacity="0.7"/>
  <text x="720" y="955" text-anchor="middle" fill="#e2e8f0" font-size="11">315.4</text>
  <text x="900" y="955" text-anchor="middle" fill="#fbbf24" font-size="14">★★★★★</text>

  <!-- Row 3 -->
  <rect x="30" y="964" width="1040" height="28" rx="2" fill="#0d1117"/>
  <text x="130" y="983" text-anchor="middle" fill="#e2e8f0" font-size="11">감성 창조자</text>
  <text x="310" y="983" text-anchor="middle" fill="#22c55e" font-size="11">10/10 ✓</text>
  <text x="460" y="983" text-anchor="middle" fill="#f59e0b" font-size="11">9/10</text>
  <text x="580" y="983" text-anchor="middle" fill="#22c55e" font-size="11">0.9 🏆</text>
  <rect x="660" y="970" width="120" height="12" rx="3" fill="#1e293b"/>
  <rect x="660" y="970" width="139" height="12" rx="3" fill="#a78bfa" opacity="0.8"/>
  <text x="720" y="983" text-anchor="middle" fill="#e2e8f0" font-size="11">347.0 🏆</text>
  <text x="900" y="983" text-anchor="middle" fill="#fbbf24" font-size="14">★★★★★</text>

  <!-- Row 4 -->
  <rect x="30" y="992" width="1040" height="28" rx="2" fill="#111827"/>
  <text x="130" y="1011" text-anchor="middle" fill="#e2e8f0" font-size="11">사회적 공감자</text>
  <text x="310" y="1011" text-anchor="middle" fill="#22c55e" font-size="11">10/10 ✓</text>
  <text x="460" y="1011" text-anchor="middle" fill="#22c55e" font-size="11">10/10</text>
  <text x="580" y="1011" text-anchor="middle" fill="#22c55e" font-size="11">1.6</text>
  <rect x="660" y="998" width="120" height="12" rx="3" fill="#1e293b"/>
  <rect x="660" y="998" width="99" height="12" rx="3" fill="#3b82f6" opacity="0.7"/>
  <text x="720" y="1011" text-anchor="middle" fill="#e2e8f0" font-size="11">248.0</text>
  <text x="900" y="1011" text-anchor="middle" fill="#fbbf24" font-size="14">★★★★★</text>

  <!-- Row 5 -->
  <rect x="30" y="1020" width="1040" height="28" rx="2" fill="#0d1117"/>
  <text x="130" y="1039" text-anchor="middle" fill="#e2e8f0" font-size="11">가벼운 소비자</text>
  <text x="310" y="1039" text-anchor="middle" fill="#22c55e" font-size="11">10/10 ✓</text>
  <text x="460" y="1039" text-anchor="middle" fill="#f59e0b" font-size="11">9/10</text>
  <text x="580" y="1039" text-anchor="middle" fill="#22c55e" font-size="11">1.6</text>
  <rect x="660" y="1026" width="120" height="12" rx="3" fill="#1e293b"/>
  <rect x="660" y="1026" width="133" height="12" rx="3" fill="#3b82f6" opacity="0.7"/>
  <text x="720" y="1039" text-anchor="middle" fill="#e2e8f0" font-size="11">332.2</text>
  <text x="900" y="1039" text-anchor="middle" fill="#fbbf24" font-size="14">★★★★★</text>

  <!-- Row 6 -->
  <rect x="30" y="1048" width="1040" height="28" rx="2" fill="#111827"/>
  <text x="130" y="1067" text-anchor="middle" fill="#e2e8f0" font-size="11">균형 추구자</text>
  <text x="310" y="1067" text-anchor="middle" fill="#22c55e" font-size="11">10/10 ✓</text>
  <text x="460" y="1067" text-anchor="middle" fill="#22c55e" font-size="11">10/10</text>
  <text x="580" y="1067" text-anchor="middle" fill="#f59e0b" font-size="11">2.0 ⚠️</text>
  <rect x="660" y="1054" width="120" height="12" rx="3" fill="#1e293b"/>
  <rect x="660" y="1054" width="87" height="12" rx="3" fill="#3b82f6" opacity="0.5"/>
  <text x="720" y="1067" text-anchor="middle" fill="#e2e8f0" font-size="11">217.7</text>
  <text x="900" y="1067" text-anchor="middle" fill="#fbbf24" font-size="13">★★★★☆</text>

  <!-- ── 발견 및 권장사항 ── -->
  <text x="30" y="1112" fill="#94a3b8" font-size="14" font-weight="bold">주요 발견 및 권장사항</text>
  <line x1="30" y1="1118" x2="1070" y2="1118" stroke="#1e293b" stroke-width="1"/>

  <!-- Finding 1 -->
  <rect x="30" y="1128" width="490" height="120" rx="8" fill="#111827"/>
  <rect x="30" y="1128" width="4" height="120" rx="2" fill="#22c55e"/>
  <text x="50" y="1150" fill="#22c55e" font-size="12" font-weight="bold">✅ 모든 케이스 100% dominant 반전</text>
  <text x="50" y="1170" fill="#94a3b8" font-size="11">60회 전부 dominant 축 -20pt 이상 감소.</text>
  <text x="50" y="1188" fill="#94a3b8" font-size="11">dominant 축 std 평균 1.8로 수치 핵심은</text>
  <text x="50" y="1206" fill="#94a3b8" font-size="11">매우 안정적. 페르소나 이름만 매번 다양.</text>
  <text x="50" y="1224" fill="#64748b" font-size="10">수치 일관성 + 이름 다양성 동시 달성</text>

  <!-- Finding 2 -->
  <rect x="540" y="1128" width="530" height="120" rx="8" fill="#111827"/>
  <rect x="540" y="1128" width="4" height="120" rx="2" fill="#3b82f6"/>
  <text x="560" y="1150" fill="#3b82f6" font-size="12" font-weight="bold">✅ 페르소나 평균 다양성 9.7/10</text>
  <text x="560" y="1170" fill="#94a3b8" font-size="11">재방문 시에도 매번 새로운 페르소나 경험.</text>
  <text x="560" y="1188" fill="#94a3b8" font-size="11">지적 탐험가 케이스가 가장 다양:</text>
  <text x="560" y="1206" fill="#94a3b8" font-size="11">재즈 밴드리더 ~ 롤러스케이트 DJ까지.</text>
  <text x="560" y="1224" fill="#64748b" font-size="10">유저 재방문 경험 품질 우수</text>

  <!-- Finding 3 -->
  <rect x="30" y="1260" width="490" height="120" rx="8" fill="#111827"/>
  <rect x="30" y="1260" width="4" height="120" rx="2" fill="#a78bfa"/>
  <text x="50" y="1282" fill="#a78bfa" font-size="12" font-weight="bold">🏆 감성 창조자 최고 성능</text>
  <text x="50" y="1302" fill="#94a3b8" font-size="11">총 변화량 347.0 최대, CE std=0.9 최소.</text>
  <text x="50" y="1320" fill="#94a3b8" font-size="11">감성/예술 ↔ 냉철한 이성/효율의 대비가</text>
  <text x="50" y="1338" fill="#94a3b8" font-size="11">8가지 페르소나 중 가장 극적이고 명확.</text>
  <text x="50" y="1356" fill="#64748b" font-size="10">CE std=0.9: 전체 최고 안정성</text>

  <!-- Finding 4: warning -->
  <rect x="540" y="1260" width="530" height="120" rx="8" fill="#111827"/>
  <rect x="540" y="1260" width="4" height="120" rx="2" fill="#f59e0b"/>
  <text x="560" y="1282" fill="#f59e0b" font-size="12" font-weight="bold">⚠️ 균형 추구자 개선 필요</text>
  <text x="560" y="1302" fill="#94a3b8" font-size="11">편향이 없으면 LLM 방향 불안정.</text>
  <text x="560" y="1320" fill="#94a3b8" font-size="11">IC std=29.3, CE std=26.1로 튀는 값 발생.</text>
  <text x="560" y="1338" fill="#94a3b8" font-size="11">권장: 균형형은 "하위 2개 축을 dominant로</text>
  <text x="560" y="1356" fill="#94a3b8" font-size="11">강제 지정" 후 LLM 호출하는 로직 추가.</text>

  <!-- ── Conclusion ── -->
  <rect x="30" y="1400" width="1040" height="70" rx="10" fill="#0f3460"/>
  <text x="550" y="1428" text-anchor="middle" fill="#e2e8f0" font-size="15" font-weight="bold">결론: 페르소나 기반 A+C 조합 방식은 프로덕션 적용에 적합</text>
  <text x="550" y="1452" text-anchor="middle" fill="#94a3b8" font-size="12">dominant 반전 100% · 다양성 9.7/10 · std 평균 1.8 · 60회 전체 패스</text>
  <text x="550" y="1470" text-anchor="middle" fill="#64748b" font-size="11">단, 균형 추구자 케이스 수치 안정성 개선 권장</text>

  <!-- Footer -->
  <text x="550" y="1520" text-anchor="middle" fill="#334155" font-size="11">Synapse Navigator — 반대방향형 이상향 LLM 검증 · gemini-2.5-flash · 2025</text>
</svg>
