<svg xmlns="http://www.w3.org/2000/svg" width="720" height="860" viewBox="0 0 720 860">
  <defs>
    <style>
      .title      { font: 800 20px 'Apple SD Gothic Neo', sans-serif; fill: #0f172a; }
      .subtitle   { font: 400 12px 'Apple SD Gothic Neo', sans-serif; fill: #64748b; }
      .axis-lbl   { font: 700 13px 'Apple SD Gothic Neo', sans-serif; }
      .axis-sub   { font: 400 10px 'Apple SD Gothic Neo', sans-serif; fill: #94a3b8; }
      .type-badge { font: 700 9px 'Apple SD Gothic Neo', sans-serif; }
      .score-cur  { font: 700 11px 'Apple SD Gothic Neo', sans-serif; fill: #2563eb; }
      .score-ideal{ font: 700 11px 'Apple SD Gothic Neo', sans-serif; fill: #dc2626; }
      .pct        { font: 400 9px 'Apple SD Gothic Neo', sans-serif; fill: #cbd5e1; }
      .legend-t   { font: 700 11px 'Apple SD Gothic Neo', sans-serif; fill: #334155; }
      .legend-s   { font: 400 10px 'Apple SD Gothic Neo', sans-serif; fill: #64748b; }
      .meta-title { font: 700 12px 'Apple SD Gothic Neo', sans-serif; fill: #1e293b; }
      .meta-val   { font: 800 14px 'Apple SD Gothic Neo', sans-serif; }
      .meta-lbl   { font: 400 10px 'Apple SD Gothic Neo', sans-serif; fill: #64748b; }
      .person-tag { font: 600 11px 'Apple SD Gothic Neo', sans-serif; fill: #475569; }
      .gap-lbl    { font: 700 10px 'Apple SD Gothic Neo', sans-serif; }
    </style>

    <!-- 현재 그라디언트 -->
    <radialGradient id="curGrad" cx="50%" cy="50%" r="50%">
      <stop offset="0%" stop-color="#3b82f6" stop-opacity="0.25"/>
      <stop offset="100%" stop-color="#3b82f6" stop-opacity="0.06"/>
    </radialGradient>
    <!-- 이상향 그라디언트 -->
    <radialGradient id="idealGrad" cx="50%" cy="50%" r="50%">
      <stop offset="0%" stop-color="#ef4444" stop-opacity="0.12"/>
      <stop offset="100%" stop-color="#ef4444" stop-opacity="0.02"/>
    </radialGradient>
  </defs>

  <!-- ── 배경 ── -->
  <rect width="720" height="860" fill="#f8fafc" rx="20"/>
  <rect x="16" y="16" width="688" height="828" fill="white" rx="14" stroke="#e2e8f0" stroke-width="1"/>

  <!-- ── 헤더 ── -->
  <text x="360" y="52" class="title" text-anchor="middle">Synapse 8 — Unified 제안 2</text>
  <text x="360" y="72" class="subtitle" text-anchor="middle">인지주권 레이더 차트 · 현재 vs 인접 이상향(ADJACENT)</text>

  <!-- 페르소나 태그 -->
  <rect x="214" y="84" width="292" height="26" rx="13" fill="#f1f5f9"/>
  <text x="360" y="101" class="person-tag" text-anchor="middle">📱 30대 직장인 · IT·자기계발 관심 · 유튜브 헤비 유저</text>

  <!-- ══════════════════════════════════════════
       RADAR CHART
       center: (360, 390)  r_max: 200
       0.707 × 200 = 141
       8축 (시계방향, 위=0):
         0 top      (360, 190)
         1 TR       (501, 249)
         2 right    (560, 390)
         3 BR       (501, 531)
         4 bottom   (360, 590)
         5 BL       (219, 531)
         6 left     (160, 390)
         7 TL       (219, 249)
  ══════════════════════════════════════════ -->

  <!-- Grid rings 20/40/60/80/100% -->
  <!-- r=40 -->
  <polygon points="360,350 388,362 400,390 388,418 360,430 332,418 320,390 332,362"
           fill="none" stroke="#f1f5f9" stroke-width="1.5"/>
  <!-- r=80 -->
  <polygon points="360,310 417,334 440,390 417,446 360,470 303,446 280,390 303,334"
           fill="none" stroke="#e2e8f0" stroke-width="1"/>
  <!-- r=120 -->
  <polygon points="360,270 445,305 480,390 445,475 360,510 275,475 240,390 275,305"
           fill="none" stroke="#e2e8f0" stroke-width="1.2"/>
  <!-- r=160 -->
  <polygon points="360,230 473,277 520,390 473,503 360,550 247,503 200,390 247,277"
           fill="none" stroke="#e2e8f0" stroke-width="1"/>
  <!-- r=200 (100%) -->
  <polygon points="360,190 501,249 560,390 501,531 360,590 219,531 160,390 219,249"
           fill="none" stroke="#cbd5e1" stroke-width="1.5"/>

  <!-- 축 라인 -->
  <line x1="360" y1="390" x2="360" y2="190" stroke="#e2e8f0" stroke-width="1" stroke-dasharray="4,3"/>
  <line x1="360" y1="390" x2="501" y2="249" stroke="#e2e8f0" stroke-width="1" stroke-dasharray="4,3"/>
  <line x1="360" y1="390" x2="560" y2="390" stroke="#e2e8f0" stroke-width="1" stroke-dasharray="4,3"/>
  <line x1="360" y1="390" x2="501" y2="531" stroke="#e2e8f0" stroke-width="1" stroke-dasharray="4,3"/>
  <line x1="360" y1="390" x2="360" y2="590" stroke="#e2e8f0" stroke-width="1" stroke-dasharray="4,3"/>
  <line x1="360" y1="390" x2="219" y2="531" stroke="#e2e8f0" stroke-width="1" stroke-dasharray="4,3"/>
  <line x1="360" y1="390" x2="160" y2="390" stroke="#e2e8f0" stroke-width="1" stroke-dasharray="4,3"/>
  <line x1="360" y1="390" x2="219" y2="249" stroke="#e2e8f0" stroke-width="1" stroke-dasharray="4,3"/>

  <!-- % 눈금 (위 축) -->
  <text x="367" y="353" class="pct">20</text>
  <text x="367" y="313" class="pct">40</text>
  <text x="367" y="273" class="pct">60</text>
  <text x="367" y="233" class="pct">80</text>

  <!-- ══ 현재 프로필 (파란 실선) ══
    점수: 지적호기심=72, 자기계발=65, 사회시선=35, 깊이몰입=45,
          정서↔도전=30, 실용↔성찰=80, 소비↔창조=25, 개인↔세계=45
    r = score/100 * 200

    0 top(72%):    r=144 → (360, 390-144) = (360, 246)
    1 TR(65%):     r=130 → 0.707*130=92 → (452, 298)
    2 right(35%):  r=70  → (430, 390)
    3 BR(45%):     r=90  → 0.707*90=64 → (424, 454)
    4 bottom(30%): r=60  → (360, 450)
    5 BL(80%):     r=160 → 0.707*160=113 → (247, 503)
    6 left(25%):   r=50  → (310, 390)
    7 TL(45%):     r=90  → 0.707*90=64 → (296, 326)
  -->
  <polygon
    points="360,246 452,298 430,390 424,454 360,450 247,503 310,390 296,326"
    fill="url(#curGrad)"
    stroke="#3b82f6"
    stroke-width="2.5"
    stroke-linejoin="round"/>

  <!-- ══ 이상향 (빨간 점선, ADJACENT) ══
    점수: 지적호기심=87, 자기계발=85, 사회시선=55, 깊이몰입=65,
          정서↔도전=45, 실용↔성찰=65, 소비↔창조=45, 개인↔세계=50

    0 top(87%):    r=174 → (360, 216)
    1 TR(85%):     r=170 → 0.707*170=120 → (480, 270)
    2 right(55%):  r=110 → (470, 390)
    3 BR(65%):     r=130 → 0.707*130=92 → (452, 482)
    4 bottom(45%): r=90  → (360, 480)
    5 BL(65%):     r=130 → 0.707*130=92 → (268, 482)
    6 left(45%):   r=90  → (270, 390)
    7 TL(50%):     r=100 → 0.707*100=71 → (289, 319)
  -->
  <polygon
    points="360,216 480,270 470,390 452,482 360,480 268,482 270,390 289,319"
    fill="url(#idealGrad)"
    stroke="#ef4444"
    stroke-width="2"
    stroke-dasharray="7,4"
    stroke-linejoin="round"/>

  <!-- 현재 점 -->
  <circle cx="360" cy="246" r="5" fill="#3b82f6" stroke="white" stroke-width="1.5"/>
  <circle cx="452" cy="298" r="5" fill="#3b82f6" stroke="white" stroke-width="1.5"/>
  <circle cx="430" cy="390" r="5" fill="#3b82f6" stroke="white" stroke-width="1.5"/>
  <circle cx="424" cy="454" r="5" fill="#3b82f6" stroke="white" stroke-width="1.5"/>
  <circle cx="360" cy="450" r="5" fill="#3b82f6" stroke="white" stroke-width="1.5"/>
  <circle cx="247" cy="503" r="5" fill="#3b82f6" stroke="white" stroke-width="1.5"/>
  <circle cx="310" cy="390" r="5" fill="#3b82f6" stroke="white" stroke-width="1.5"/>
  <circle cx="296" cy="326" r="5" fill="#3b82f6" stroke="white" stroke-width="1.5"/>

  <!-- 이상향 점 -->
  <circle cx="360" cy="216" r="5" fill="#ef4444" stroke="white" stroke-width="1.5"/>
  <circle cx="480" cy="270" r="5" fill="#ef4444" stroke="white" stroke-width="1.5"/>
  <circle cx="470" cy="390" r="5" fill="#ef4444" stroke="white" stroke-width="1.5"/>
  <circle cx="452" cy="482" r="5" fill="#ef4444" stroke="white" stroke-width="1.5"/>
  <circle cx="360" cy="480" r="5" fill="#ef4444" stroke="white" stroke-width="1.5"/>
  <circle cx="268" cy="482" r="5" fill="#ef4444" stroke="white" stroke-width="1.5"/>
  <circle cx="270" cy="390" r="5" fill="#ef4444" stroke="white" stroke-width="1.5"/>
  <circle cx="289" cy="319" r="5" fill="#ef4444" stroke="white" stroke-width="1.5"/>

  <!-- 중심점 -->
  <circle cx="360" cy="390" r="4" fill="#94a3b8"/>

  <!-- ══════════ 축 라벨 & 타입 배지 ══════════ -->

  <!-- 확장(C) 색 = #0d9488(teal), 성장(A) = #16a34a(green), 스펙트럼(B) = #7c3aed(purple) -->

  <!-- 0: 지적 호기심 (top) — 확장(C) -->
  <text x="360" y="168" class="axis-lbl" text-anchor="middle" fill="#0d9488">지적 호기심</text>
  <text x="360" y="181" class="axis-sub" text-anchor="middle">새 채널·주제 넓게 탐색</text>
  <rect x="332" y="185" width="56" height="15" rx="7" fill="#ccfbf1"/>
  <text x="360" y="196" class="type-badge" text-anchor="middle" fill="#0d9488">확장(C)</text>
  <!-- 현재/이상향 점수 -->
  <text x="344" y="242" class="score-cur" text-anchor="end">72</text>
  <text x="376" y="214" class="score-ideal" text-anchor="start">87</text>

  <!-- 1: 자기계발 (TR) — 성장(A) -->
  <text x="512" y="235" class="axis-lbl" text-anchor="start" fill="#16a34a">자기계발</text>
  <text x="512" y="248" class="axis-sub" text-anchor="start">습관·목표·생산성</text>
  <rect x="512" y="252" width="48" height="15" rx="7" fill="#dcfce7"/>
  <text x="536" y="263" class="type-badge" text-anchor="middle" fill="#16a34a">성장(A)</text>
  <text x="464" y="295" class="score-cur">65</text>
  <text x="483" y="268" class="score-ideal">85</text>

  <!-- 2: 사회·시선 (right) — 성장(A) -->
  <text x="568" y="385" class="axis-lbl" text-anchor="start" fill="#16a34a">사회·시선</text>
  <text x="568" y="398" class="axis-sub" text-anchor="start">뉴스·이슈·세상</text>
  <rect x="568" y="402" width="48" height="15" rx="7" fill="#dcfce7"/>
  <text x="592" y="413" class="type-badge" text-anchor="middle" fill="#16a34a">성장(A)</text>
  <text x="432" y="388" class="score-cur">35</text>
  <text x="473" y="388" class="score-ideal">55</text>

  <!-- 3: 깊이·몰입 (BR) — 확장(C) -->
  <text x="512" y="520" class="axis-lbl" text-anchor="start" fill="#0d9488">깊이·몰입</text>
  <text x="512" y="533" class="axis-sub" text-anchor="start">장편·연속·binge</text>
  <rect x="512" y="537" width="56" height="15" rx="7" fill="#ccfbf1"/>
  <text x="540" y="548" class="type-badge" text-anchor="middle" fill="#0d9488">확장(C)</text>
  <text x="426" y="452" class="score-cur">45</text>
  <text x="455" y="480" class="score-ideal">65</text>

  <!-- 4: 정서↔도전 (bottom) — 스펙트럼(B) -->
  <text x="360" y="610" class="axis-lbl" text-anchor="middle" fill="#7c3aed">정서 ↔ 도전</text>
  <text x="360" y="623" class="axis-sub" text-anchor="middle">0=힐링/위로  100=도전/자극</text>
  <rect x="321" y="627" width="78" height="15" rx="7" fill="#ede9fe"/>
  <text x="360" y="638" class="type-badge" text-anchor="middle" fill="#7c3aed">스펙트럼(B)</text>
  <text x="347" y="447" class="score-cur" text-anchor="end">30</text>
  <text x="347" y="479" class="score-ideal" text-anchor="end">45</text>

  <!-- 5: 실용↔성찰 (BL) — 스펙트럼(B) -->
  <text x="208" y="520" class="axis-lbl" text-anchor="end" fill="#7c3aed">실용 ↔ 성찰</text>
  <text x="208" y="533" class="axis-sub" text-anchor="end">0=How-to  100=철학·인문</text>
  <rect x="152" y="537" width="78" height="15" rx="7" fill="#ede9fe"/>
  <text x="191" y="548" class="type-badge" text-anchor="middle" fill="#7c3aed">스펙트럼(B)</text>
  <text x="243" y="501" class="score-cur" text-anchor="end">80</text>
  <text x="263" y="481" class="score-ideal" text-anchor="end">65</text>

  <!-- 6: 소비↔창조 (left) — 스펙트럼(B) -->
  <text x="148" y="385" class="axis-lbl" text-anchor="end" fill="#7c3aed">소비 ↔ 창조</text>
  <text x="148" y="398" class="axis-sub" text-anchor="end">0=수동소비  100=창작·DIY</text>
  <rect x="100" y="402" width="78" height="15" rx="7" fill="#ede9fe"/>
  <text x="139" y="413" class="type-badge" text-anchor="middle" fill="#7c3aed">스펙트럼(B)</text>
  <text x="307" y="388" class="score-cur" text-anchor="end">25</text>
  <text x="267" y="388" class="score-ideal" text-anchor="end">45</text>

  <!-- 7: 개인↔세계 (TL) — 스펙트럼(B) -->
  <text x="208" y="235" class="axis-lbl" text-anchor="end" fill="#7c3aed">개인 ↔ 세계</text>
  <text x="208" y="248" class="axis-sub" text-anchor="end">0=내면·솔로  100=사회·글로벌</text>
  <rect x="130" y="252" width="78" height="15" rx="7" fill="#ede9fe"/>
  <text x="169" y="263" class="type-badge" text-anchor="middle" fill="#7c3aed">스펙트럼(B)</text>
  <text x="290" y="324" class="score-cur" text-anchor="end">45</text>
  <text x="283" y="317" class="score-ideal" text-anchor="end">50</text>

  <!-- ══════════ GAP 화살표 표시 (주요 2개) ══════════ -->
  <!-- 사회시선 gap +20 -->
  <line x1="430" y1="390" x2="465" y2="390" stroke="#f97316" stroke-width="1.5" stroke-dasharray="3,2"/>
  <polygon points="465,387 470,390 465,393" fill="#f97316"/>
  <rect x="435" y="376" width="26" height="13" rx="6" fill="#fff7ed"/>
  <text x="448" y="386" class="gap-lbl" text-anchor="middle" fill="#ea580c">+20</text>

  <!-- 실용성찰 gap -15 (반대로 줄여야 함) -->
  <line x1="247" y1="503" x2="268" y2="487" stroke="#f97316" stroke-width="1.5" stroke-dasharray="3,2"/>
  <polygon points="265,484 270,489 262,491" fill="#f97316"/>
  <rect x="243" y="487" width="24" height="13" rx="6" fill="#fff7ed"/>
  <text x="255" y="497" class="gap-lbl" text-anchor="middle" fill="#ea580c">-15</text>

  <!-- ══════════════════════════════════════
       LEGEND
  ══════════════════════════════════════ -->
  <rect x="36" y="656" width="648" height="56" rx="10" fill="#f8fafc" stroke="#e2e8f0" stroke-width="1"/>

  <!-- 현재 프로필 -->
  <rect x="60" y="674" width="18" height="18" rx="4" fill="rgba(59,130,246,0.2)" stroke="#3b82f6" stroke-width="2"/>
  <text x="84" y="686" class="legend-t">현재 프로필</text>
  <text x="84" y="699" class="legend-s">실제 YouTube 시청·검색 행동 기반</text>

  <!-- 이상향 -->
  <line x1="230" y1="682" x2="256" y2="682" stroke="#ef4444" stroke-width="2.5" stroke-dasharray="6,3"/>
  <text x="264" y="686" class="legend-t">이상향 (ADJACENT)</text>
  <text x="264" y="699" class="legend-s">인접 확장형 — 부담 없는 자연스러운 성장</text>

  <!-- 축 타입 범례 -->
  <rect x="468" y="671" width="36" height="14" rx="7" fill="#dcfce7"/>
  <text x="486" y="681" class="type-badge" text-anchor="middle" fill="#16a34a">성장(A)</text>
  <text x="509" y="681" class="legend-s">높을수록 ↑</text>

  <rect x="468" y="688" width="36" height="14" rx="7" fill="#ccfbf1"/>
  <text x="486" y="698" class="type-badge" text-anchor="middle" fill="#0d9488">확장(C)</text>
  <text x="509" y="698" class="legend-s">인접 영역 ↗</text>

  <rect x="570" y="671" width="52" height="14" rx="7" fill="#ede9fe"/>
  <text x="596" y="681" class="type-badge" text-anchor="middle" fill="#7c3aed">스펙트럼(B)</text>
  <text x="627" y="681" class="legend-s"></text>
  <text x="570" y="698" class="legend-s">치우침 → 반대 방향 유도</text>

  <!-- ══════════════════════════════════════
       META KPI 영역
  ══════════════════════════════════════ -->
  <text x="36" y="738" class="meta-title">Layer 2 — 메타 KPI (8각 밖)</text>

  <!-- 균형 지수 -->
  <rect x="36" y="746" width="148" height="66" rx="10" fill="white" stroke="#e2e8f0" stroke-width="1"/>
  <text x="110" y="768" class="meta-lbl" text-anchor="middle">균형 지수</text>
  <text x="110" y="792" class="meta-val" text-anchor="middle" fill="#16a34a">42</text>
  <text x="110" y="806" class="meta-lbl" text-anchor="middle" fill="#f97316">실용 편중 주의</text>

  <!-- 편중도 -->
  <rect x="194" y="746" width="148" height="66" rx="10" fill="white" stroke="#e2e8f0" stroke-width="1"/>
  <text x="268" y="768" class="meta-lbl" text-anchor="middle">편중도</text>
  <text x="268" y="792" class="meta-val" text-anchor="middle" fill="#dc2626">68</text>
  <text x="268" y="806" class="meta-lbl" text-anchor="middle" fill="#dc2626">실용↔성찰 치우침</text>

  <!-- 주 성향 축 -->
  <rect x="352" y="746" width="148" height="66" rx="10" fill="white" stroke="#e2e8f0" stroke-width="1"/>
  <text x="426" y="768" class="meta-lbl" text-anchor="middle">주 성향 축</text>
  <text x="426" y="786" style="font: 700 11px sans-serif; fill: #0f172a" text-anchor="middle">실용↔성찰</text>
  <text x="426" y="800" style="font: 700 11px sans-serif; fill: #0f172a" text-anchor="middle">지적 호기심</text>
  <text x="426" y="808" class="meta-lbl" text-anchor="middle">dominant</text>

  <!-- 공백 축 -->
  <rect x="510" y="746" width="174" height="66" rx="10" fill="white" stroke="#e2e8f0" stroke-width="1"/>
  <text x="597" y="768" class="meta-lbl" text-anchor="middle">공백 축 (Navigator 확장 시드)</text>
  <text x="597" y="786" style="font: 700 11px sans-serif; fill: #0f172a" text-anchor="middle">소비↔창조</text>
  <text x="597" y="800" style="font: 700 11px sans-serif; fill: #0f172a" text-anchor="middle">사회·시선</text>
  <text x="597" y="808" class="meta-lbl" text-anchor="middle">weak → 이상향 확장 방향</text>

  <!-- ══ 하단 보조 KPI ══ -->
  <text x="36" y="832" class="meta-lbl">Layer 3 보조 KPI —</text>
  <text x="136" y="832" style="font:700 10px sans-serif; fill:#0f172a">채널 집중도 0.71</text>
  <text x="238" y="832" class="meta-lbl">·</text>
  <text x="248" y="832" style="font:700 10px sans-serif; fill:#dc2626">에코챔버 위험 0.58 ↑</text>
  <text x="368" y="832" class="meta-lbl">·</text>
  <text x="378" y="832" style="font:700 10px sans-serif; fill:#0f172a">검색 활성도 0.31</text>
  <text x="478" y="832" class="meta-lbl">(추천-only 시청 비율 높음)</text>

</svg>
