<svg xmlns="http://www.w3.org/2000/svg" width="820" height="960" viewBox="0 0 820 960">
  <defs>
    <style>
      .t-title   { font: 800 20px 'Apple SD Gothic Neo',sans-serif; fill:#0f172a; }
      .t-sub     { font: 400 12px 'Apple SD Gothic Neo',sans-serif; fill:#64748b; }
      .t-section { font: 700 13px 'Apple SD Gothic Neo',sans-serif; }
      .t-axis    { font: 700 12px 'Apple SD Gothic Neo',sans-serif; }
      .t-axissub { font: 400 9px  'Apple SD Gothic Neo',sans-serif; fill:#94a3b8; }
      .t-badge   { font: 700 9px  'Apple SD Gothic Neo',sans-serif; }
      .t-score   { font: 700 11px 'Apple SD Gothic Neo',sans-serif; }
      .t-pct     { font: 400 9px  'Apple SD Gothic Neo',sans-serif; fill:#cbd5e1; }
      .t-formula { font: 400 9px  'Apple SD Gothic Neo',sans-serif; fill:#64748b; }
      .t-chip    { font: 700 10px 'Apple SD Gothic Neo',sans-serif; }
      .t-person  { font: 600 11px 'Apple SD Gothic Neo',sans-serif; fill:#475569; }
      .t-legend  { font: 700 11px 'Apple SD Gothic Neo',sans-serif; fill:#334155; }
      .t-legsub  { font: 400 10px 'Apple SD Gothic Neo',sans-serif; fill:#64748b; }
      .t-metav   { font: 800 16px 'Apple SD Gothic Neo',sans-serif; }
      .t-metalbl { font: 400 10px 'Apple SD Gothic Neo',sans-serif; fill:#64748b; }
      .t-pair    { font: 700 10px 'Apple SD Gothic Neo',sans-serif; fill:#94a3b8; }
      .t-new     { font: 800 9px  'Apple SD Gothic Neo',sans-serif; }
      .t-gap     { font: 700 10px 'Apple SD Gothic Neo',sans-serif; }
    </style>

    <radialGradient id="hg-cur" cx="50%" cy="50%" r="50%">
      <stop offset="0%" stop-color="#8b5cf6" stop-opacity="0.25"/>
      <stop offset="100%" stop-color="#8b5cf6" stop-opacity="0.06"/>
    </radialGradient>
    <radialGradient id="hg-ideal" cx="50%" cy="50%" r="50%">
      <stop offset="0%" stop-color="#f59e0b" stop-opacity="0.15"/>
      <stop offset="100%" stop-color="#f59e0b" stop-opacity="0.02"/>
    </radialGradient>

    <!-- 축 타입 색상 그라디언트 -->
    <linearGradient id="pair1" x1="0" y1="0" x2="1" y2="0">
      <stop offset="0%" stop-color="#6366f1" stop-opacity="0.15"/>
      <stop offset="100%" stop-color="#6366f1" stop-opacity="0.05"/>
    </linearGradient>
    <linearGradient id="pair2" x1="0" y1="0" x2="1" y2="0">
      <stop offset="0%" stop-color="#0d9488" stop-opacity="0.15"/>
      <stop offset="100%" stop-color="#0d9488" stop-opacity="0.05"/>
    </linearGradient>
    <linearGradient id="pair3" x1="0" y1="0" x2="1" y2="0">
      <stop offset="0%" stop-color="#dc2626" stop-opacity="0.15"/>
      <stop offset="100%" stop-color="#dc2626" stop-opacity="0.05"/>
    </linearGradient>

    <marker id="arr" markerWidth="7" markerHeight="7" refX="5" refY="3" orient="auto">
      <path d="M0,0 L0,6 L7,3 z" fill="#94a3b8"/>
    </marker>
  </defs>

  <!-- ════ 배경 ════ -->
  <rect width="820" height="960" fill="#f1f5f9" rx="20"/>
  <rect x="14" y="14" width="792" height="932" fill="white" rx="14" stroke="#e2e8f0"/>

  <!-- ════ 헤더 ════ -->
  <text x="410" y="50" class="t-title" text-anchor="middle">Layer B — 인지주권 6지수 (육각 레이더)</text>
  <text x="410" y="70" class="t-sub"   text-anchor="middle">Dual-Layer 제안 3 · 기존 4지수 + 깊이 집중도 · 비판적 수용력 추가 → 대칭 페어 3쌍</text>
  <rect x="275" y="80" width="270" height="24" rx="12" fill="#f1f5f9"/>
  <text x="410" y="96" class="t-person" text-anchor="middle">📱 30대 직장인 · IT·자기계발 관심 · 유튜브 헤비 유저</text>

  <!-- NEW 뱃지 설명 -->
  <rect x="38" y="108" width="174" height="20" rx="10" fill="#fef9c3"/>
  <text x="125" y="121" class="t-new" text-anchor="middle" fill="#a16207">★ NEW: 깊이 집중도 · 비판적 수용력 추가</text>

  <!-- ══════════════════════════════════════════════════════════
       LEFT — Layer B 육각 레이더 차트
       center: (245, 400)   r_max: 155
       6축 (시계방향, 위=0):
         정육각 각도: 0°(top), 60°(TR), 120°(BR), 180°(bottom), 240°(BL), 300°(TL)
         cos/sin:
           top(270°svg) : (0, -1)        → (245, 245)
           TR (330°svg) : (0.5, -0.866)  → (322, 266)
           BR (30°svg)  : (0.5,  0.866)  → (322, 534)  -- wait

         Let me use standard 6-axis hexagon:
         Axis 0 top    : angle=-90°  → (245, 245)
         Axis 1 TR     : angle=-30°  → cos(-30)=0.866, sin(-30)=-0.5 → (245+134, 400-78) = (379, 322)
         Axis 2 BR     : angle=30°   → cos(30)=0.866,  sin(30)=0.5   → (379, 478)
         Axis 3 bottom : angle=90°   → (245, 555)
         Axis 4 BL     : angle=150°  → cos(150)=-0.866,sin(150)=0.5  → (111, 478)
         Axis 5 TL     : angle=210°  → cos(210)=-0.866,sin(210)=-0.5 → (111, 322)
  ══════════════════════════════════════════════════════════ -->

  <!-- 패널 배경 -->
  <rect x="26" y="108" width="392" height="530" rx="10" fill="#fafafa" stroke="#e2e8f0"/>

  <!-- 섹션 레이블 -->
  <rect x="38" y="136" width="86" height="20" rx="10" fill="#ede9fe"/>
  <text x="81" y="149" class="t-section" text-anchor="middle" fill="#6d28d9">Layer B</text>
  <text x="134" y="149" class="t-section" fill="#1e293b">인지주권 6지수 — 육각 차트</text>

  <!-- 대칭 페어 범례 -->
  <text x="38"  y="168" class="t-pair">페어① 상태</text>
  <rect x="93"  y="158" width="8" height="8" rx="2" fill="#6366f1"/>
  <text x="120" y="168" class="t-pair">  페어② 공간</text>
  <rect x="179" y="158" width="8" height="8" rx="2" fill="#0d9488"/>
  <text x="204" y="168" class="t-pair">  페어③ 실행</text>
  <rect x="261" y="158" width="8" height="8" rx="2" fill="#dc2626"/>

  <!-- ── Grid rings (r=31,62,93,124,155) 정육각형 ──
       r=31(20%):   0.866*31=27
       r=62(40%):   0.866*62=54
       r=93(60%):   0.866*93=81
       r=124(80%):  0.866*124=107
       r=155(100%): 0.866*155=134

       top    = (245, 400-r)
       TR     = (245+0.866r, 400-0.5r)
       BR     = (245+0.866r, 400+0.5r)
       bottom = (245, 400+r)
       BL     = (245-0.866r, 400+0.5r)
       TL     = (245-0.866r, 400-0.5r)
  -->
  <!-- r=31 -->
  <polygon points="245,369 272,385 272,415 245,431 218,415 218,385"
           fill="none" stroke="#f1f5f9" stroke-width="1.5"/>
  <!-- r=62 -->
  <polygon points="245,338 299,369 299,431 245,462 191,431 191,369"
           fill="none" stroke="#e2e8f0" stroke-width="1"/>
  <!-- r=93 -->
  <polygon points="245,307 326,354 326,447 245,493 164,447 164,354"
           fill="none" stroke="#e2e8f0" stroke-width="1.2"/>
  <!-- r=124 -->
  <polygon points="245,276 352,338 352,462 245,524 138,462 138,338"
           fill="none" stroke="#e2e8f0" stroke-width="1"/>
  <!-- r=155 -->
  <polygon points="245,245 379,322 379,478 245,555 111,478 111,322"
           fill="none" stroke="#cbd5e1" stroke-width="1.5"/>

  <!-- 축 라인 -->
  <line x1="245" y1="400" x2="245" y2="245" stroke="#e2e8f0" stroke-width="1" stroke-dasharray="3,3"/>
  <line x1="245" y1="400" x2="379" y2="322" stroke="#e2e8f0" stroke-width="1" stroke-dasharray="3,3"/>
  <line x1="245" y1="400" x2="379" y2="478" stroke="#e2e8f0" stroke-width="1" stroke-dasharray="3,3"/>
  <line x1="245" y1="400" x2="245" y2="555" stroke="#e2e8f0" stroke-width="1" stroke-dasharray="3,3"/>
  <line x1="245" y1="400" x2="111" y2="478" stroke="#e2e8f0" stroke-width="1" stroke-dasharray="3,3"/>
  <line x1="245" y1="400" x2="111" y2="322" stroke="#e2e8f0" stroke-width="1" stroke-dasharray="3,3"/>

  <!-- % 눈금 -->
  <text x="252" y="372" class="t-pct">20</text>
  <text x="252" y="341" class="t-pct">40</text>
  <text x="252" y="310" class="t-pct">60</text>
  <text x="252" y="279" class="t-pct">80</text>

  <!-- ══ 현재 (보라 실선) ══
    6지수 점수:
      0 top    관점균형     =52
      1 TR     탐색넓이     =70
      2 BR     깊이집중도   =38   ★NEW
      3 bottom 성장잠재력   =55
      4 BL     비판적수용력 =34   ★NEW
      5 TL     주체성       =31

    r = score/100 * 155

    0 top(52%)    r=80.6  → (245, 400-81) = (245, 319)
    1 TR(70%)     r=108.5 → (245+0.866*109, 400-0.5*109) = (245+94, 400-55) = (339, 346) -- wait
                            0.866*108.5=93.9≈94, 0.5*108.5=54 → (339, 346)
    2 BR(38%)     r=58.9  → 0.866*59=51, 0.5*59=30 → (296, 430)
    3 bottom(55%) r=85.3  → (245, 400+85) = (245, 485)
    4 BL(34%)     r=52.7  → 0.866*53=46, 0.5*53=27 → (199, 427)
    5 TL(31%)     r=48.1  → 0.866*48=42, 0.5*48=24 → (203, 376)
  -->
  <polygon
    points="245,319 339,346 296,430 245,485 199,427 203,376"
    fill="url(#hg-cur)"
    stroke="#8b5cf6"
    stroke-width="2.5"
    stroke-linejoin="round"/>

  <!-- ══ 이상향 (주황 점선, ADJACENT) ══
    이상향 점수:
      0 top    관점균형     =68  (+16)
      1 TR     탐색넓이     =82  (+12)
      2 BR     깊이집중도   =58  (+20) ★NEW 핵심 확장
      3 bottom 성장잠재력   =72  (+17)
      4 BL     비판적수용력 =55  (+21) ★NEW 핵심 타깃
      5 TL     주체성       =55  (+24)

    0 top(68%)    r=105.4 → (245, 295)
    1 TR(82%)     r=127.1 → 0.866*127=110, 0.5*127=64 → (355, 337)
    2 BR(58%)     r=89.9  → 0.866*90=78, 0.5*90=45 → (323, 445)
    3 bottom(72%) r=111.6 → (245, 512)
    4 BL(55%)     r=85.3  → 0.866*85=74, 0.5*85=43 → (171, 443)
    5 TL(55%)     r=85.3  → 0.866*85=74, 0.5*85=43 → (171, 357)
  -->
  <polygon
    points="245,295 355,337 323,445 245,512 171,443 171,357"
    fill="url(#hg-ideal)"
    stroke="#f59e0b"
    stroke-width="2"
    stroke-dasharray="7,4"
    stroke-linejoin="round"/>

  <!-- 현재 점 -->
  <circle cx="245" cy="319" r="5" fill="#8b5cf6" stroke="white" stroke-width="1.5"/>
  <circle cx="339" cy="346" r="5" fill="#8b5cf6" stroke="white" stroke-width="1.5"/>
  <circle cx="296" cy="430" r="5" fill="#8b5cf6" stroke="white" stroke-width="1.5"/>
  <circle cx="245" cy="485" r="5" fill="#8b5cf6" stroke="white" stroke-width="1.5"/>
  <circle cx="199" cy="427" r="5" fill="#8b5cf6" stroke="white" stroke-width="1.5"/>
  <circle cx="203" cy="376" r="5" fill="#8b5cf6" stroke="white" stroke-width="1.5"/>

  <!-- 이상향 점 -->
  <circle cx="245" cy="295" r="5" fill="#f59e0b" stroke="white" stroke-width="1.5"/>
  <circle cx="355" cy="337" r="5" fill="#f59e0b" stroke="white" stroke-width="1.5"/>
  <circle cx="323" cy="445" r="5" fill="#f59e0b" stroke="white" stroke-width="1.5"/>
  <circle cx="245" cy="512" r="5" fill="#f59e0b" stroke="white" stroke-width="1.5"/>
  <circle cx="171" cy="443" r="5" fill="#f59e0b" stroke="white" stroke-width="1.5"/>
  <circle cx="171" cy="357" r="5" fill="#f59e0b" stroke="white" stroke-width="1.5"/>

  <!-- 중심 -->
  <circle cx="245" cy="400" r="4" fill="#94a3b8"/>

  <!-- ══ 페어 연결선 (대칭 강조) ══ -->
  <!-- 페어①: 관점균형(top) ↔ 성장잠재력(bottom) -->
  <line x1="245" y1="245" x2="245" y2="555" stroke="#6366f1" stroke-width="1" stroke-opacity="0.3" stroke-dasharray="2,4"/>
  <!-- 페어②: 탐색넓이(TR) ↔ 깊이집중도(BR) -->
  <line x1="379" y1="322" x2="379" y2="478" stroke="#0d9488" stroke-width="1" stroke-opacity="0.3" stroke-dasharray="2,4"/>
  <!-- 페어③: 비판적수용력(BL) ↔ 주체성(TL) -->
  <line x1="111" y1="322" x2="111" y2="478" stroke="#dc2626" stroke-width="1" stroke-opacity="0.3" stroke-dasharray="2,4"/>

  <!-- ══ 축 라벨 ══ -->

  <!-- 0: 관점 균형 (top) — 페어① 인디고 -->
  <text x="245" y="228" class="t-axis" text-anchor="middle" fill="#4f46e5">관점 균형</text>
  <text x="245" y="239" class="t-axissub" text-anchor="middle">편향↔균형 · 프로필 분산도 역수</text>
  <text x="233" y="317" class="t-score" fill="#8b5cf6" text-anchor="end">52</text>
  <text x="233" y="294" class="t-score" fill="#f59e0b" text-anchor="end">68</text>
  <rect x="248" y="288" width="26" height="14" rx="7" fill="#fef9c3"/>
  <text x="261" y="298" class="t-gap" text-anchor="middle" fill="#a16207">+16</text>

  <!-- 1: 탐색 넓이 (TR) — 페어② 청록 -->
  <text x="388" y="314" class="t-axis" text-anchor="start" fill="#0d9488">탐색 넓이</text>
  <text x="388" y="325" class="t-axissub" text-anchor="start">지적호기심×0.7 + weak축×10</text>
  <text x="336" y="344" class="t-score" fill="#8b5cf6">70</text>
  <text x="358" y="335" class="t-score" fill="#f59e0b">82</text>
  <rect x="342" y="327" width="26" height="14" rx="7" fill="#fef9c3"/>
  <text x="355" y="337" class="t-gap" text-anchor="middle" fill="#a16207">+12</text>

  <!-- 2: 깊이 집중도 (BR) — 페어② 청록 ★NEW -->
  <rect x="328" y="452" width="46" height="14" rx="7" fill="#fef3c7"/>
  <text x="351" y="462" class="t-new" text-anchor="middle" fill="#b45309">★ NEW</text>
  <text x="388" y="476" class="t-axis" text-anchor="start" fill="#0d9488">깊이 집중도</text>
  <text x="388" y="487" class="t-axissub" text-anchor="start">depth_immersion×0.5 + (1-shorts)×0.3</text>
  <text x="293" y="428" class="t-score" fill="#8b5cf6">38</text>
  <text x="321" y="443" class="t-score" fill="#f59e0b">58</text>
  <rect x="296" y="435" width="26" height="14" rx="7" fill="#fef9c3"/>
  <text x="309" y="445" class="t-gap" text-anchor="middle" fill="#a16207">+20</text>

  <!-- 3: 성장 잠재력 (bottom) — 페어① 인디고 -->
  <text x="245" y="572" class="t-axis" text-anchor="middle" fill="#4f46e5">성장 잠재력</text>
  <text x="245" y="583" class="t-axissub" text-anchor="middle">자기계발×0.6 + 깊이몰입×0.4</text>
  <text x="233" y="484" class="t-score" fill="#8b5cf6" text-anchor="end">55</text>
  <text x="233" y="511" class="t-score" fill="#f59e0b" text-anchor="end">72</text>
  <rect x="248" y="503" width="26" height="14" rx="7" fill="#fef9c3"/>
  <text x="261" y="513" class="t-gap" text-anchor="middle" fill="#a16207">+17</text>

  <!-- 4: 비판적 수용력 (BL) — 페어③ 적 ★NEW -->
  <rect x="46" y="452" width="46" height="14" rx="7" fill="#fef3c7"/>
  <text x="69" y="462" class="t-new" text-anchor="middle" fill="#b45309">★ NEW</text>
  <text x="102" y="476" class="t-axis" text-anchor="end" fill="#dc2626">비판적 수용력</text>
  <text x="102" y="487" class="t-axissub" text-anchor="end">(1-echo_risk)×0.5 + 다양성×0.5</text>
  <text x="196" y="426" class="t-score" fill="#8b5cf6" text-anchor="end">34</text>
  <text x="169" y="442" class="t-score" fill="#f59e0b" text-anchor="end">55</text>
  <rect x="147" y="435" width="26" height="14" rx="7" fill="#fef9c3"/>
  <text x="160" y="445" class="t-gap" text-anchor="middle" fill="#a16207">+21</text>

  <!-- 5: 주체성 (TL) — 페어③ 적 -->
  <text x="102" y="314" class="t-axis" text-anchor="end" fill="#dc2626">주체성</text>
  <text x="102" y="325" class="t-axissub" text-anchor="end">search_active_ratio × 100</text>
  <text x="201" y="374" class="t-score" fill="#8b5cf6" text-anchor="end">31</text>
  <text x="169" y="356" class="t-score" fill="#f59e0b" text-anchor="end">55</text>
  <rect x="147" y="348" width="26" height="14" rx="7" fill="#fef9c3"/>
  <text x="160" y="358" class="t-gap" text-anchor="middle" fill="#a16207">+24</text>

  <!-- ══ 하단 범례 ══ -->
  <rect x="38" y="600" width="368" height="26" rx="8" fill="#f1f5f9"/>
  <circle cx="58" cy="613" r="5" fill="#8b5cf6"/>
  <text x="68" y="617" class="t-legsub">현재 (보라 실선)</text>
  <line x1="148" y1="613" x2="168" y2="613" stroke="#f59e0b" stroke-width="2.5" stroke-dasharray="5,3"/>
  <text x="174" y="617" class="t-legsub">이상향 ADJACENT (주황 점선)</text>
  <rect x="310" y="606" width="24" height="14" rx="7" fill="#fef9c3"/>
  <text x="322" y="617" class="t-gap" text-anchor="middle" fill="#a16207">+N</text>
  <text x="338" y="617" class="t-legsub">gap</text>


  <!-- ══════════════════════════════════════════════════════════
       RIGHT PANEL — 6지수 상세 카드
  ══════════════════════════════════════════════════════════ -->

  <rect x="432" y="108" width="364" height="530" rx="10" fill="#fafafa" stroke="#e2e8f0"/>
  <text x="614" y="136" class="t-section" text-anchor="middle" fill="#1e293b">6지수 산출 공식 · 의미 · gap</text>

  <!-- 카드 템플릿: y=148, 간격=82 -->

  <!-- ── 페어① 인디고 라인 ── -->
  <rect x="444" y="143" width="6" height="155" rx="3" fill="#6366f1" opacity="0.4"/>
  <text x="456" y="153" class="t-pair" fill="#6366f1">페어① 상태 축</text>

  <!-- 카드: 관점 균형 -->
  <rect x="454" y="158" width="330" height="62" rx="8" fill="white" stroke="#e0e7ff" stroke-width="1.5"/>
  <text x="466" y="174" class="t-axis" fill="#4f46e5">관점 균형 지수</text>
  <text x="466" y="186" class="t-formula">= 100 − normalize(std[지적호기심,사회시선,실용지향,정서위로])</text>
  <text x="466" y="196" class="t-formula">  std([72,35,78,55])=16.7 → polarization 58 → balance 42...</text>
  <text x="466" y="207" class="t-formula" fill="#94a3b8">  현재 프로필 편중이 큼. 실용지향(78)↔사회시선(35) 격차 주요 원인.</text>
  <text x="756" y="188" class="t-metav" text-anchor="end" fill="#4f46e5">52</text>
  <text x="756" y="200" class="t-formula" text-anchor="end" fill="#f59e0b">→ 68</text>
  <rect x="726" y="204" width="32" height="12" rx="6" fill="#fef9c3"/>
  <text x="742" y="213" class="t-gap" text-anchor="middle" fill="#a16207">+16</text>

  <!-- 카드: 성장 잠재력 -->
  <rect x="454" y="230" width="330" height="62" rx="8" fill="white" stroke="#e0e7ff" stroke-width="1.5"/>
  <text x="466" y="246" class="t-axis" fill="#4f46e5">성장 잠재력</text>
  <text x="466" y="258" class="t-formula">= 자기계발(65) × 0.6 + 깊이몰입(40) × 0.4 = 55.0</text>
  <text x="466" y="268" class="t-formula">  두 축이 함께 올라야 실질적 성장 달성.</text>
  <text x="466" y="279" class="t-formula" fill="#94a3b8">  자기계발만 높고 깊이 없으면 "지식 쇼핑" 패턴.</text>
  <text x="756" y="260" class="t-metav" text-anchor="end" fill="#4f46e5">55</text>
  <text x="756" y="272" class="t-formula" text-anchor="end" fill="#f59e0b">→ 72</text>
  <rect x="726" y="276" width="32" height="12" rx="6" fill="#fef9c3"/>
  <text x="742" y="285" class="t-gap" text-anchor="middle" fill="#a16207">+17</text>

  <!-- ── 페어② 청록 라인 ── -->
  <rect x="444" y="302" width="6" height="155" rx="3" fill="#0d9488" opacity="0.4"/>
  <text x="456" y="312" class="t-pair" fill="#0d9488">페어② 공간 축</text>

  <!-- 카드: 탐색 넓이 -->
  <rect x="454" y="318" width="330" height="62" rx="8" fill="white" stroke="#ccfbf1" stroke-width="1.5"/>
  <text x="466" y="334" class="t-axis" fill="#0d9488">탐색 넓이</text>
  <text x="466" y="346" class="t-formula">= 지적호기심(72)×0.7 + weak_axes(창의·사회, 2개)×10 = 70.4</text>
  <text x="466" y="356" class="t-formula">  현재 IT 분야 중심 탐색. 인접 분야 2개가 weak 시드.</text>
  <text x="466" y="367" class="t-formula" fill="#94a3b8">  → Navigator: 디자인·사회과학 인접 채널 추천.</text>
  <text x="756" y="348" class="t-metav" text-anchor="end" fill="#0d9488">70</text>
  <text x="756" y="360" class="t-formula" text-anchor="end" fill="#f59e0b">→ 82</text>
  <rect x="726" y="364" width="32" height="12" rx="6" fill="#fef9c3"/>
  <text x="742" y="373" class="t-gap" text-anchor="middle" fill="#a16207">+12</text>

  <!-- 카드: 깊이 집중도 ★NEW -->
  <rect x="454" y="390" width="330" height="62" rx="8" fill="white" stroke="#ccfbf1" stroke-width="2"/>
  <rect x="456" y="392" width="42" height="14" rx="7" fill="#fef3c7"/>
  <text x="477" y="402" class="t-new" text-anchor="middle" fill="#b45309">★ NEW</text>
  <text x="504" y="402" class="t-axis" fill="#0d9488">깊이 집중도</text>
  <text x="466" y="418" class="t-formula">= depth_immersion×0.5 + (1−shorts_ratio)×0.3×100 + topic_conc×0.2</text>
  <text x="466" y="428" class="t-formula">  shorts_ratio 높음 + depth_immersion 낮음 → 38점 (낮음).</text>
  <text x="466" y="439" class="t-formula" fill="#dc2626">  ⚠ 가장 큰 gap 중 하나. 쇼츠 의존→장편 콘텐츠 유도 필요.</text>
  <text x="756" y="420" class="t-metav" text-anchor="end" fill="#0d9488">38</text>
  <text x="756" y="432" class="t-formula" text-anchor="end" fill="#f59e0b">→ 58</text>
  <rect x="726" y="436" width="32" height="12" rx="6" fill="#fef9c3"/>
  <text x="742" y="445" class="t-gap" text-anchor="middle" fill="#a16207">+20</text>

  <!-- ── 페어③ 적 라인 ── -->
  <rect x="444" y="462" width="6" height="165" rx="3" fill="#dc2626" opacity="0.4"/>
  <text x="456" y="472" class="t-pair" fill="#dc2626">페어③ 실행 축</text>

  <!-- 카드: 주체성 -->
  <rect x="454" y="478" width="330" height="62" rx="8" fill="white" stroke="#fee2e2" stroke-width="1.5"/>
  <text x="466" y="494" class="t-axis" fill="#dc2626">주체성</text>
  <text x="466" y="506" class="t-formula">= search_active_ratio × 100 = 0.31 × 100 = 31</text>
  <text x="466" y="516" class="t-formula">  추천-only 시청 비율 69%. 알고리즘 의존도 매우 높음.</text>
  <text x="466" y="527" class="t-formula" fill="#dc2626">  🎯 최우선 개선 타깃. Synapse Navigator 핵심 개선 지점.</text>
  <text x="756" y="508" class="t-metav" text-anchor="end" fill="#dc2626">31</text>
  <text x="756" y="520" class="t-formula" text-anchor="end" fill="#f59e0b">→ 55</text>
  <rect x="726" y="524" width="32" height="12" rx="6" fill="#fef9c3"/>
  <text x="742" y="533" class="t-gap" text-anchor="middle" fill="#a16207">+24</text>

  <!-- 카드: 비판적 수용력 ★NEW -->
  <rect x="454" y="550" width="330" height="76" rx="8" fill="white" stroke="#fee2e2" stroke-width="2"/>
  <rect x="456" y="552" width="42" height="14" rx="7" fill="#fef3c7"/>
  <text x="477" y="562" class="t-new" text-anchor="middle" fill="#b45309">★ NEW</text>
  <text x="504" y="562" class="t-axis" fill="#dc2626">비판적 수용력</text>
  <text x="466" y="578" class="t-formula">= (1 − echo_chamber_risk) × 0.5 × 100 + diversity_score × 0.5</text>
  <text x="466" y="589" class="t-formula">  echo_risk=0.58 → (1-0.58)×50=21 + diversity×0.5 ≈ 34</text>
  <text x="466" y="600" class="t-formula">  반대 의견·불편한 진실 수용 능력. 필터버블 탈출 실행력.</text>
  <text x="466" y="611" class="t-formula" fill="#dc2626">  🎯 Navigator 핵심 목적. 에코챔버 위험 0.58 → 개선 시급.</text>
  <text x="756" y="583" class="t-metav" text-anchor="end" fill="#dc2626">34</text>
  <text x="756" y="595" class="t-formula" text-anchor="end" fill="#f59e0b">→ 55</text>
  <rect x="726" y="598" width="32" height="12" rx="6" fill="#fef9c3"/>
  <text x="742" y="607" class="t-gap" text-anchor="middle" fill="#a16207">+21</text>


  <!-- ════════════════════════════════════════════════════════
       BOTTOM — 대칭 페어 설명 + 종합 해석
  ════════════════════════════════════════════════════════ -->

  <rect x="26" y="652" width="770" height="100" rx="10" fill="#f8fafc" stroke="#e2e8f0"/>
  <text x="411" y="672" class="t-section" text-anchor="middle" fill="#1e293b">3쌍 대칭 구조 — 왜 이 6개인가</text>

  <!-- 페어① -->
  <rect x="46" y="682" width="228" height="58" rx="8" fill="white" stroke="#e0e7ff" stroke-width="1.5"/>
  <rect x="48" y="684" width="6" height="54" rx="3" fill="#6366f1" opacity="0.6"/>
  <text x="62" y="698" class="t-axis" fill="#4f46e5">① 상태 축</text>
  <text x="62" y="711" class="t-formula">관점 균형  ↔  성장 잠재력</text>
  <text x="62" y="723" class="t-formula" fill="#94a3b8">"지금 어떤 상태?" ↔ "어디로 가는가?"</text>
  <text x="62" y="733" class="t-formula" fill="#94a3b8">현재 진단 ↔ 미래 방향</text>

  <!-- 페어② -->
  <rect x="284" y="682" width="228" height="58" rx="8" fill="white" stroke="#ccfbf1" stroke-width="1.5"/>
  <rect x="286" y="684" width="6" height="54" rx="3" fill="#0d9488" opacity="0.6"/>
  <text x="300" y="698" class="t-axis" fill="#0d9488">② 공간 축</text>
  <text x="300" y="711" class="t-formula">탐색 넓이  ↔  깊이 집중도</text>
  <text x="300" y="723" class="t-formula" fill="#94a3b8">"얼마나 넓게?" ↔ "얼마나 깊게?"</text>
  <text x="300" y="733" class="t-formula" fill="#94a3b8">가로 확장 ↔ 세로 심화</text>

  <!-- 페어③ -->
  <rect x="522" y="682" width="262" height="58" rx="8" fill="white" stroke="#fee2e2" stroke-width="1.5"/>
  <rect x="524" y="684" width="6" height="54" rx="3" fill="#dc2626" opacity="0.6"/>
  <text x="538" y="698" class="t-axis" fill="#dc2626">③ 실행 축 ★NEW 포함</text>
  <text x="538" y="711" class="t-formula">비판적 수용력 ↔ 주체성</text>
  <text x="538" y="723" class="t-formula" fill="#94a3b8">"불편함도 받아들이는가?" ↔ "내가 선택하는가?"</text>
  <text x="538" y="733" class="t-formula" fill="#94a3b8">인지 개방성 ↔ 행동 능동성</text>

  <!-- ════════════════════════════════════════════════════════
       BOTTOM 2 — 종합 해석 & Navigator 액션
  ════════════════════════════════════════════════════════ -->

  <rect x="26" y="764" width="770" height="148" rx="10" fill="#fafafa" stroke="#e2e8f0"/>
  <text x="411" y="784" class="t-section" text-anchor="middle" fill="#1e293b">이 사람의 인지주권 종합 해석</text>

  <!-- 강점 -->
  <rect x="38" y="792" width="232" height="108" rx="8" fill="white" stroke="#bbf7d0" stroke-width="1.5"/>
  <text x="154" y="808" class="t-axis" text-anchor="middle" fill="#16a34a">✓ 강점</text>
  <text x="50" y="823" class="t-formula">탐색 넓이 70 — IT 분야 다양하게 탐색</text>
  <text x="50" y="836" class="t-formula">성장 잠재력 55 — 자기계발 관심 기반</text>
  <text x="50" y="849" class="t-formula">관점 균형 52 — 중간 수준 유지 중</text>
  <text x="50" y="862" class="t-formula" fill="#94a3b8">"탐색은 하고 있으나 깊이와 주체성이 부족"</text>
  <text x="50" y="875" class="t-formula" fill="#94a3b8">→ 양적 소비 → 질적 전환 필요</text>
  <text x="50" y="888" class="t-formula" fill="#94a3b8">→ ADJACENT: 깊이+비판성 강화</text>

  <!-- 핵심 개선 -->
  <rect x="280" y="792" width="232" height="108" rx="8" fill="white" stroke="#fed7aa" stroke-width="1.5"/>
  <text x="396" y="808" class="t-axis" text-anchor="middle" fill="#ea580c">⚠ 핵심 개선</text>
  <text x="292" y="823" class="t-formula">주체성 31 — 알고리즘 의존 69%</text>
  <text x="292" y="836" class="t-formula">비판적수용 34 — 에코챔버 위험↑</text>
  <text x="292" y="849" class="t-formula">깊이집중 38 — 쇼츠·단편 중심 소비</text>
  <text x="292" y="862" class="t-formula" fill="#dc2626">3개 모두 낮음 → 수동 소비 패턴</text>
  <text x="292" y="875" class="t-formula" fill="#94a3b8">추천만 클릭 + 쇼츠 + 한 채널</text>
  <text x="292" y="888" class="t-formula" fill="#94a3b8">= 전형적 필터버블 징후</text>

  <!-- Navigator 액션 -->
  <rect x="522" y="792" width="262" height="108" rx="8" fill="white" stroke="#e0e7ff" stroke-width="1.5"/>
  <text x="653" y="808" class="t-axis" text-anchor="middle" fill="#4f46e5">🧭 Navigator 액션 (ADJACENT)</text>
  <text x="534" y="823" class="t-formula">① 오늘의 퀘스트: 검색으로만 10분 탐색</text>
  <text x="534" y="836" class="t-formula">② 가이드: 20분↑ 장편 1개/일 4주 루틴</text>
  <text x="534" y="849" class="t-formula">③ 플레이리스트: 반대 의견 IT 영상 큐레이션</text>
  <text x="534" y="862" class="t-formula">④ 이상향 gap 총합: 110pt (12차원)</text>
  <text x="534" y="875" class="t-formula" fill="#4f46e5">Layer B 6지수 개선 시 Layer A도 연동 향상</text>
  <text x="534" y="888" class="t-formula" fill="#94a3b8">4주 후 재측정 → 이상향 재설계</text>

</svg>
