<svg xmlns="http://www.w3.org/2000/svg" width="860" height="940" viewBox="0 0 860 940">
  <defs>
    <style>
      .t-title   { font: 800 19px 'Apple SD Gothic Neo',sans-serif; fill:#0f172a; }
      .t-sub     { font: 400 11px 'Apple SD Gothic Neo',sans-serif; fill:#64748b; }
      .t-sec     { font: 700 12px 'Apple SD Gothic Neo',sans-serif; }
      .t-axis    { font: 700 12px 'Apple SD Gothic Neo',sans-serif; }
      .t-axissub { font: 400 9px  'Apple SD Gothic Neo',sans-serif; fill:#94a3b8; }
      .t-badge   { font: 700 9px  'Apple SD Gothic Neo',sans-serif; }
      .t-score   { font: 700 11px 'Apple SD Gothic Neo',sans-serif; }
      .t-pct     { font: 400 9px  'Apple SD Gothic Neo',sans-serif; fill:#cbd5e1; }
      .t-form    { font: 400 9px  'Apple SD Gothic Neo',sans-serif; fill:#64748b; }
      .t-person  { font: 600 11px 'Apple SD Gothic Neo',sans-serif; fill:#475569; }
      .t-legend  { font: 700 11px 'Apple SD Gothic Neo',sans-serif; fill:#334155; }
      .t-legsub  { font: 400 10px 'Apple SD Gothic Neo',sans-serif; fill:#64748b; }
      .t-gap     { font: 700 10px 'Apple SD Gothic Neo',sans-serif; }
      .t-pair    { font: 700 10px 'Apple SD Gothic Neo',sans-serif; }
      .t-signal  { font: 600 9px  'Apple SD Gothic Neo',sans-serif; fill:#0f172a; }
      .t-prev    { font: 400 9px  'Apple SD Gothic Neo',sans-serif; fill:#94a3b8; text-decoration:line-through; }
      .t-big     { font: 800 16px 'Apple SD Gothic Neo',sans-serif; }
    </style>

    <radialGradient id="rg-cur" cx="50%" cy="50%" r="50%">
      <stop offset="0%" stop-color="#6366f1" stop-opacity="0.28"/>
      <stop offset="100%" stop-color="#6366f1" stop-opacity="0.06"/>
    </radialGradient>
    <radialGradient id="rg-ideal" cx="50%" cy="50%" r="50%">
      <stop offset="0%" stop-color="#f59e0b" stop-opacity="0.18"/>
      <stop offset="100%" stop-color="#f59e0b" stop-opacity="0.03"/>
    </radialGradient>

    <!-- 페어 색상 -->
    <!-- 페어①노출 indigo #6366f1 -->
    <!-- 페어②공간 teal   #0d9488 -->
    <!-- 페어③행동 amber  #d97706 -->
  </defs>

  <!-- ══ 배경 ══ -->
  <rect width="860" height="940" fill="#f1f5f9" rx="20"/>
  <rect x="14" y="14" width="832" height="912" fill="white" rx="14" stroke="#e2e8f0"/>

  <!-- ══ 헤더 ══ -->
  <text x="430" y="50" class="t-title" text-anchor="middle">Layer B — 인지주권 6지수 v2 (겹침 완전 제거)</text>
  <text x="430" y="68" class="t-sub"   text-anchor="middle">Layer A(WHAT 측정)와 완전히 다른 신호만 사용 · HOW 행동 사이클 6축 · 대칭 페어 3쌍</text>
  <rect x="286" y="76" width="288" height="22" rx="11" fill="#f1f5f9"/>
  <text x="430" y="92" class="t-person" text-anchor="middle">📱 30대 직장인 · IT·자기계발 관심 · 유튜브 헤비 유저</text>

  <!-- 이전 vs 지금 설명 배너 -->
  <rect x="28" y="102" width="804" height="20" rx="10" fill="#fef9c3"/>
  <text x="430" y="115" class="t-badge" text-anchor="middle" fill="#a16207">
    ▲ 교체: 탐색넓이(≒지적호기심) · 깊이집중도(≒깊이몰입) · 성장잠재력(≒자기계발) 제거 → 영역확장성 · 주의지속성 · 성찰전환력 신규
  </text>

  <!-- ══════════════════════════════════════════════════════════
       LEFT — Layer B 육각 레이더
       center: (245, 400)  r_max: 155
       정육각:
         top    (245, 245)
         TR     (379, 322)   0.866×155=134, 0.5×155=78
         BR     (379, 478)
         bottom (245, 555)
         BL     (111, 478)
         TL     (111, 322)
  ══════════════════════════════════════════════════════════ -->

  <rect x="26" y="130" width="394" height="530" rx="10" fill="#fafafa" stroke="#e2e8f0"/>

  <!-- 섹션 레이블 -->
  <rect x="38" y="140" width="86" height="18" rx="9" fill="#ede9fe"/>
  <text x="81" y="152" class="t-sec" text-anchor="middle" fill="#6d28d9">Layer B v2</text>
  <text x="136" y="152" class="t-sec" fill="#1e293b">HOW 행동 사이클 6축</text>

  <!-- 페어 범례 -->
  <rect x="38"  y="162" width="7" height="7" rx="2" fill="#6366f1"/>
  <text x="50"  y="169" class="t-pair" fill="#6366f1">노출 페어</text>
  <rect x="112" y="162" width="7" height="7" rx="2" fill="#0d9488"/>
  <text x="124" y="169" class="t-pair" fill="#0d9488">공간 페어</text>
  <rect x="186" y="162" width="7" height="7" rx="2" fill="#d97706"/>
  <text x="198" y="169" class="t-pair" fill="#d97706">행동 페어</text>

  <!-- ── Grid rings ──
    r=31(20%):  0.866×31=27
    r=62(40%):  54
    r=93(60%):  81
    r=124(80%): 107
    r=155(100%):134
  -->
  <polygon points="245,369 272,385 272,415 245,431 218,415 218,385" fill="none" stroke="#f1f5f9" stroke-width="1.5"/>
  <polygon points="245,338 299,369 299,431 245,462 191,431 191,369" fill="none" stroke="#e2e8f0" stroke-width="1"/>
  <polygon points="245,307 326,354 326,447 245,493 164,447 164,354" fill="none" stroke="#e2e8f0" stroke-width="1.2"/>
  <polygon points="245,276 352,338 352,462 245,524 138,462 138,338" fill="none" stroke="#e2e8f0" stroke-width="1"/>
  <polygon points="245,245 379,322 379,478 245,555 111,478 111,322" fill="none" stroke="#cbd5e1" stroke-width="1.5"/>

  <!-- 축 라인 -->
  <line x1="245" y1="400" x2="245" y2="245" stroke="#e2e8f0" stroke-width="1" stroke-dasharray="3,3"/>
  <line x1="245" y1="400" x2="379" y2="322" stroke="#e2e8f0" stroke-width="1" stroke-dasharray="3,3"/>
  <line x1="245" y1="400" x2="379" y2="478" stroke="#e2e8f0" stroke-width="1" stroke-dasharray="3,3"/>
  <line x1="245" y1="400" x2="245" y2="555" stroke="#e2e8f0" stroke-width="1" stroke-dasharray="3,3"/>
  <line x1="245" y1="400" x2="111" y2="478" stroke="#e2e8f0" stroke-width="1" stroke-dasharray="3,3"/>
  <line x1="245" y1="400" x2="111" y2="322" stroke="#e2e8f0" stroke-width="1" stroke-dasharray="3,3"/>

  <!-- 페어 연결선 -->
  <line x1="245" y1="245" x2="245" y2="555" stroke="#6366f1" stroke-width="1.2" stroke-opacity="0.3" stroke-dasharray="2,5"/>
  <line x1="379" y1="322" x2="111" y2="478" stroke="#0d9488" stroke-width="1.2" stroke-opacity="0.3" stroke-dasharray="2,5"/>
  <line x1="379" y1="478" x2="111" y2="322" stroke="#d97706" stroke-width="1.2" stroke-opacity="0.3" stroke-dasharray="2,5"/>

  <!-- % 눈금 -->
  <text x="252" y="372" class="t-pct">20</text>
  <text x="252" y="341" class="t-pct">40</text>
  <text x="252" y="310" class="t-pct">60</text>
  <text x="252" y="279" class="t-pct">80</text>

  <!-- ══ 현재 (보라 실선) ══
    축 배치 (시계방향):
      0 top    관점 다양성   = 38
      1 TR     영역 확장성   = 55
      2 BR     성찰 전환력   = 28
      3 bottom 비판 수용성   = 34
      4 BL     주의 지속성   = 42
      5 TL     발견 주도성   = 31

    r = score/100 × 155

    0(38%): r=58.9  → (245, 400-59)=(245,341)
    1(55%): r=85.3  → 0.866×85=74, 0.5×85=43 → (319,357)
    2(28%): r=43.4  → 0.866×43=37, 0.5×43=22 → (282,422)
    3(34%): r=52.7  → (245,453)
    4(42%): r=65.1  → 0.866×65=56, 0.5×65=33 → (189,433)
    5(31%): r=48.1  → 0.866×48=42, 0.5×48=24 → (203,376)
  -->
  <polygon
    points="245,341 319,357 282,422 245,453 189,433 203,376"
    fill="url(#rg-cur)"
    stroke="#6366f1"
    stroke-width="2.5"
    stroke-linejoin="round"/>

  <!-- ══ 이상향 (황금 점선) ══
    이상향 점수:
      0 관점 다양성 58 (+20)
      1 영역 확장성 68 (+13)
      2 성찰 전환력 48 (+20)
      3 비판 수용성 55 (+21)
      4 주의 지속성 62 (+20)
      5 발견 주도성 55 (+24)

    0(58%): r=89.9  → (245,310)
    1(68%): r=105.4 → 0.866×105=91, 0.5×105=53 → (336,348) -- (245+91,400-53)=(336,347)
    2(48%): r=74.4  → 0.866×74=64, 0.5×74=37 → (309,437) -- (245+64,400+37)=(309,437)
    3(55%): r=85.3  → (245,485)
    4(62%): r=96.1  → 0.866×96=83, 0.5×96=48 → (162,448) -- (245-83,400+48)=(162,448)
    5(55%): r=85.3  → 0.866×85=74, 0.5×85=43 → (171,357) -- (245-74,400-43)=(171,357)
  -->
  <polygon
    points="245,310 336,347 309,437 245,485 162,448 171,357"
    fill="url(#rg-ideal)"
    stroke="#f59e0b"
    stroke-width="2"
    stroke-dasharray="7,4"
    stroke-linejoin="round"/>

  <!-- 현재 점 -->
  <circle cx="245" cy="341" r="5" fill="#6366f1" stroke="white" stroke-width="1.5"/>
  <circle cx="319" cy="357" r="5" fill="#6366f1" stroke="white" stroke-width="1.5"/>
  <circle cx="282" cy="422" r="5" fill="#6366f1" stroke="white" stroke-width="1.5"/>
  <circle cx="245" cy="453" r="5" fill="#6366f1" stroke="white" stroke-width="1.5"/>
  <circle cx="189" cy="433" r="5" fill="#6366f1" stroke="white" stroke-width="1.5"/>
  <circle cx="203" cy="376" r="5" fill="#6366f1" stroke="white" stroke-width="1.5"/>

  <!-- 이상향 점 -->
  <circle cx="245" cy="310" r="5" fill="#f59e0b" stroke="white" stroke-width="1.5"/>
  <circle cx="336" cy="347" r="5" fill="#f59e0b" stroke="white" stroke-width="1.5"/>
  <circle cx="309" cy="437" r="5" fill="#f59e0b" stroke="white" stroke-width="1.5"/>
  <circle cx="245" cy="485" r="5" fill="#f59e0b" stroke="white" stroke-width="1.5"/>
  <circle cx="162" cy="448" r="5" fill="#f59e0b" stroke="white" stroke-width="1.5"/>
  <circle cx="171" cy="357" r="5" fill="#f59e0b" stroke="white" stroke-width="1.5"/>

  <!-- 중심 -->
  <circle cx="245" cy="400" r="4" fill="#94a3b8"/>

  <!-- ══ 축 라벨 ══ -->

  <!-- 0: 관점 다양성 (top) — 페어①노출 인디고 -->
  <text x="245" y="228" class="t-axis" text-anchor="middle" fill="#4f46e5">관점 다양성</text>
  <text x="245" y="239" class="t-axissub" text-anchor="middle">같은 주제 내 다채널 비율</text>
  <text x="233" y="339" class="t-score" fill="#6366f1" text-anchor="end">38</text>
  <text x="233" y="309" class="t-score" fill="#f59e0b" text-anchor="end">58</text>
  <rect x="247" y="303" width="24" height="13" rx="6" fill="#fef9c3"/>
  <text x="259" y="313" class="t-gap" text-anchor="middle" fill="#a16207">+20</text>

  <!-- 1: 영역 확장성 (TR) — 페어②공간 청록 -->
  <text x="388" y="316" class="t-axis" text-anchor="start" fill="#0d9488">영역 확장성</text>
  <text x="388" y="327" class="t-axissub" text-anchor="start">신규 카테고리 첫진입 빈도</text>
  <text x="316" y="355" class="t-score" fill="#6366f1">55</text>
  <text x="339" y="345" class="t-score" fill="#f59e0b">68</text>
  <rect x="316" y="337" width="24" height="13" rx="6" fill="#fef9c3"/>
  <text x="328" y="347" class="t-gap" text-anchor="middle" fill="#a16207">+13</text>

  <!-- 2: 성찰 전환력 (BR) — 페어③행동 황금 -->
  <text x="388" y="472" class="t-axis" text-anchor="start" fill="#d97706">성찰 전환력</text>
  <text x="388" y="483" class="t-axissub" text-anchor="start">시청 후 검색·저장·연관탐색</text>
  <text x="278" y="420" class="t-score" fill="#6366f1">28</text>
  <text x="311" y="435" class="t-score" fill="#f59e0b">48</text>
  <rect x="278" y="427" width="24" height="13" rx="6" fill="#fef9c3"/>
  <text x="290" y="437" class="t-gap" text-anchor="middle" fill="#a16207">+20</text>

  <!-- 3: 비판 수용성 (bottom) — 페어①노출 인디고 -->
  <text x="245" y="570" class="t-axis" text-anchor="middle" fill="#4f46e5">비판 수용성</text>
  <text x="245" y="581" class="t-axissub" text-anchor="middle">(1-에코챔버) + 불편콘텐츠 완주율</text>
  <text x="233" y="451" class="t-score" fill="#6366f1" text-anchor="end">34</text>
  <text x="233" y="484" class="t-score" fill="#f59e0b" text-anchor="end">55</text>
  <rect x="247" y="476" width="24" height="13" rx="6" fill="#fef9c3"/>
  <text x="259" y="486" class="t-gap" text-anchor="middle" fill="#a16207">+21</text>

  <!-- 4: 주의 지속성 (BL) — 페어②공간 청록 -->
  <text x="102" y="472" class="t-axis" text-anchor="end" fill="#0d9488">주의 지속성</text>
  <text x="102" y="483" class="t-axissub" text-anchor="end">평균 완주율 · 집중 완결</text>
  <text x="186" y="431" class="t-score" fill="#6366f1" text-anchor="end">42</text>
  <text x="160" y="446" class="t-score" fill="#f59e0b" text-anchor="end">62</text>
  <rect x="162" y="438" width="24" height="13" rx="6" fill="#fef9c3"/>
  <text x="174" y="448" class="t-gap" text-anchor="middle" fill="#a16207">+20</text>

  <!-- 5: 발견 주도성 (TL) — 페어③행동 황금 -->
  <text x="102" y="316" class="t-axis" text-anchor="end" fill="#d97706">발견 주도성</text>
  <text x="102" y="327" class="t-axissub" text-anchor="end">검색·직접방문 vs 추천-only</text>
  <text x="200" y="374" class="t-score" fill="#6366f1" text-anchor="end">31</text>
  <text x="169" y="356" class="t-score" fill="#f59e0b" text-anchor="end">55</text>
  <rect x="171" y="349" width="24" height="13" rx="6" fill="#fef9c3"/>
  <text x="183" y="359" class="t-gap" text-anchor="middle" fill="#a16207">+24</text>

  <!-- 하단 범례 -->
  <rect x="38" y="622" width="370" height="24" rx="8" fill="#f1f5f9"/>
  <circle cx="58" cy="634" r="5" fill="#6366f1"/>
  <text x="68" y="638" class="t-legsub">현재 (보라 실선)</text>
  <line x1="150" y1="634" x2="172" y2="634" stroke="#f59e0b" stroke-width="2.5" stroke-dasharray="5,3"/>
  <text x="178" y="638" class="t-legsub">이상향 ADJACENT (황금 점선)</text>
  <rect x="316" y="628" width="24" height="13" rx="6" fill="#fef9c3"/>
  <text x="328" y="638" class="t-gap" text-anchor="middle" fill="#a16207">+N</text>
  <text x="344" y="638" class="t-legsub">gap</text>


  <!-- ══════════════════════════════════════════════════════════
       RIGHT PANEL — 6축 상세 카드 (겹침 제거 근거 포함)
  ══════════════════════════════════════════════════════════ -->

  <rect x="432" y="130" width="408" height="516" rx="10" fill="#fafafa" stroke="#e2e8f0"/>
  <text x="636" y="150" class="t-sec" text-anchor="middle" fill="#1e293b">6축 정의 · 측정 신호 · Layer A와 비교</text>

  <!-- 카드 높이: 78px, 간격 6px, y시작: 158 -->

  <!-- ── 페어① 라인 인디고 ── -->
  <rect x="440" y="156" width="5" height="156" rx="3" fill="#6366f1" opacity="0.5"/>
  <text x="450" y="167" class="t-pair" fill="#4f46e5">노출 페어 — "무엇에 노출되는가"</text>

  <!-- 카드: 관점 다양성 -->
  <rect x="448" y="172" width="384" height="68" rx="8" fill="white" stroke="#e0e7ff" stroke-width="1.5"/>
  <text x="460" y="188" class="t-axis" fill="#4f46e5">① 관점 다양성</text>
  <text x="460" y="200" class="t-signal">신호: 같은 카테고리 내 채널 수 / 반대 포지션 영상 비율</text>
  <text x="460" y="211" class="t-form">= (within_topic_channel_diversity × 0.6) + (opposing_view_ratio × 0.4) × 100</text>
  <text x="460" y="222" class="t-form" fill="#16a34a">✅ Layer A 완전 분리: Layer A는 "어떤 주제" 측정, 이 축은 "같은 주제 내 시각 다양성"</text>
  <rect x="640" y="177" width="34" height="14" rx="7" fill="#e0e7ff"/>
  <text x="657" y="187" class="t-badge" text-anchor="middle" fill="#4f46e5">38 → 58</text>
  <rect x="678" y="177" width="28" height="14" rx="7" fill="#fef9c3"/>
  <text x="692" y="187" class="t-gap" text-anchor="middle" fill="#a16207">+20</text>
  <text x="460" y="232" class="t-form" fill="#94a3b8">이전 "관점 균형": Layer A 8개 분산값 재활용 → 제거</text>

  <!-- 카드: 비판 수용성 -->
  <rect x="448" y="248" width="384" height="58" rx="8" fill="white" stroke="#e0e7ff" stroke-width="1.5"/>
  <text x="460" y="264" class="t-axis" fill="#4f46e5">② 비판 수용성</text>
  <text x="460" y="276" class="t-signal">신호: (1 - echo_chamber_risk) × 0.5 + 불편콘텐츠 완주율 × 0.5</text>
  <text x="460" y="287" class="t-form">echo_risk=0.58 → (0.42×50) + (완주율 26%×50) = 21+13 = 34</text>
  <text x="460" y="298" class="t-form" fill="#16a34a">✅ Layer 3 신호만 사용. Layer A emotional_comfort와 다름 (성향 vs 수용 행동)</text>
  <rect x="640" y="253" width="34" height="14" rx="7" fill="#e0e7ff"/>
  <text x="657" y="263" class="t-badge" text-anchor="middle" fill="#4f46e5">34 → 55</text>
  <rect x="678" y="253" width="28" height="14" rx="7" fill="#fef9c3"/>
  <text x="692" y="263" class="t-gap" text-anchor="middle" fill="#a16207">+21</text>

  <!-- ── 페어② 라인 청록 ── -->
  <rect x="440" y="316" width="5" height="156" rx="3" fill="#0d9488" opacity="0.5"/>
  <text x="450" y="327" class="t-pair" fill="#0d9488">공간 페어 — "어디까지 가는가"</text>

  <!-- 카드: 영역 확장성 -->
  <rect x="448" y="332" width="384" height="68" rx="8" fill="white" stroke="#ccfbf1" stroke-width="1.5"/>
  <text x="460" y="348" class="t-axis" fill="#0d9488">③ 영역 확장성</text>
  <text x="460" y="360" class="t-signal">신호: 월간 신규 카테고리 첫진입 횟수 / 채널 신규 구독 다양도</text>
  <text x="460" y="371" class="t-form">= new_category_rate(월 2.1개) × 0.6 + novel_channel_diversity × 0.4</text>
  <text x="460" y="382" class="t-form" fill="#16a34a">✅ Layer A intellectual_curiosity와 다름: 정적 넓이 vs 동적 성장률</text>
  <rect x="640" y="337" width="34" height="14" rx="7" fill="#ccfbf1"/>
  <text x="657" y="347" class="t-badge" text-anchor="middle" fill="#0d9488">55 → 68</text>
  <rect x="678" y="337" width="28" height="14" rx="7" fill="#fef9c3"/>
  <text x="692" y="347" class="t-gap" text-anchor="middle" fill="#a16207">+13</text>
  <text x="460" y="392" class="t-form" fill="#94a3b8">이전 "탐색 넓이": intellectual_curiosity 재활용 → 제거</text>

  <!-- 카드: 주의 지속성 -->
  <rect x="448" y="408" width="384" height="58" rx="8" fill="white" stroke="#ccfbf1" stroke-width="1.5"/>
  <text x="460" y="424" class="t-axis" fill="#0d9488">④ 주의 지속성</text>
  <text x="460" y="436" class="t-signal">신호: 평균 완주율 / 도중 이탈 패턴 / 연속 집중 세션 빈도</text>
  <text x="460" y="447" class="t-form">= avg_completion_rate(65%) × 0.5 + focus_session_ratio × 0.5 = 42</text>
  <text x="460" y="458" class="t-form" fill="#16a34a">✅ Layer A depth_immersion과 다름: 긴 영상 선호 vs 끝까지 집중하는 행동</text>
  <rect x="640" y="413" width="34" height="14" rx="7" fill="#ccfbf1"/>
  <text x="657" y="423" class="t-badge" text-anchor="middle" fill="#0d9488">42 → 62</text>
  <rect x="678" y="413" width="28" height="14" rx="7" fill="#fef9c3"/>
  <text x="692" y="423" class="t-gap" text-anchor="middle" fill="#a16207">+20</text>
  <text x="460" y="460" class="t-form" fill="#94a3b8">이전 "깊이 집중도": depth_immersion 재활용 → 제거</text>

  <!-- ── 페어③ 라인 황금 ── -->
  <rect x="440" y="476" width="5" height="156" rx="3" fill="#d97706" opacity="0.5"/>
  <text x="450" y="487" class="t-pair" fill="#d97706">행동 페어 — "소비 전·후 무엇을 하는가"</text>

  <!-- 카드: 성찰 전환력 -->
  <rect x="448" y="492" width="384" height="68" rx="8" fill="white" stroke="#fde68a" stroke-width="1.5"/>
  <text x="460" y="508" class="t-axis" fill="#d97706">⑤ 성찰 전환력</text>
  <text x="460" y="520" class="t-signal">신호: 시청 후 검색 빈도 / 저장·스크랩율 / 연관 영상 추가 탐색 깊이</text>
  <text x="460" y="531" class="t-form">= post_search_rate(0.22)×40 + save_rate(0.08)×30 + explore_depth×30 = 28</text>
  <text x="460" y="542" class="t-form" fill="#16a34a">✅ 완전 새 신호. Layer A 어떤 축과도 겹치지 않음. 시청 후 메타인지 행동</text>
  <rect x="640" y="497" width="34" height="14" rx="7" fill="#fde68a"/>
  <text x="657" y="507" class="t-badge" text-anchor="middle" fill="#92400e">28 → 48</text>
  <rect x="678" y="497" width="28" height="14" rx="7" fill="#fef9c3"/>
  <text x="692" y="507" class="t-gap" text-anchor="middle" fill="#a16207">+20</text>
  <text x="460" y="552" class="t-form" fill="#dc2626">⚠ 이 사람 최저점(28). 보고 끝내는 패턴. 핵심 개선 타깃.</text>

  <!-- 카드: 발견 주도성 -->
  <rect x="448" y="568" width="384" height="68" rx="8" fill="white" stroke="#fde68a" stroke-width="1.5"/>
  <text x="460" y="584" class="t-axis" fill="#d97706">⑥ 발견 주도성</text>
  <text x="460" y="596" class="t-signal">신호: 검색 후 시청 / 직접 URL 방문 / 구독 피드 활용 vs 홈 추천</text>
  <text x="460" y="607" class="t-form">= search_active_ratio(0.31)×100 = 31</text>
  <text x="460" y="618" class="t-form" fill="#16a34a">✅ Layer 3 search_active_ratio 단독 사용. Layer A 어떤 축과도 겹치지 않음</text>
  <rect x="640" y="573" width="34" height="14" rx="7" fill="#fde68a"/>
  <text x="657" y="583" class="t-badge" text-anchor="middle" fill="#92400e">31 → 55</text>
  <rect x="678" y="573" width="28" height="14" rx="7" fill="#fef9c3"/>
  <text x="692" y="583" class="t-gap" text-anchor="middle" fill="#a16207">+24</text>
  <text x="460" y="628" class="t-form" fill="#dc2626">⚠ 추천-only 시청 69%. 알고리즘 의존. 주체성과 동일 신호. 가장 큰 gap.</text>


  <!-- ══════════════════════════════════════════════════════════
       BOTTOM — 신호 출처 완전 분리표
  ══════════════════════════════════════════════════════════ -->

  <rect x="26" y="658" width="814" height="108" rx="10" fill="#f8fafc" stroke="#e2e8f0"/>
  <text x="433" y="676" class="t-sec" text-anchor="middle" fill="#1e293b">신호 출처 완전 분리 — 6축 × 3 레이어 매핑</text>

  <!-- 헤더 행 -->
  <rect x="38" y="682" width="790" height="18" rx="4" fill="#f1f5f9"/>
  <text x="120" y="694" class="t-badge" text-anchor="middle" fill="#475569">축</text>
  <text x="260" y="694" class="t-badge" text-anchor="middle" fill="#475569">Layer A 재활용?</text>
  <text x="430" y="694" class="t-badge" text-anchor="middle" fill="#475569">실제 신호 출처</text>
  <text x="640" y="694" class="t-badge" text-anchor="middle" fill="#475569">측정 시점</text>

  <!-- 데이터 행들 -->
  <text x="60"  y="710" class="t-form">① 관점 다양성</text>
  <text x="260" y="710" class="t-form" text-anchor="middle" fill="#16a34a">✅ 없음</text>
  <text x="430" y="710" class="t-form" text-anchor="middle">Indexer 채널 태깅 + 카테고리 분류</text>
  <text x="640" y="710" class="t-form" text-anchor="middle">시청 중</text>

  <text x="60"  y="722" class="t-form">② 비판 수용성</text>
  <text x="260" y="722" class="t-form" text-anchor="middle" fill="#16a34a">✅ 없음</text>
  <text x="430" y="722" class="t-form" text-anchor="middle">Layer 3 echo_chamber_risk + 완주율</text>
  <text x="640" y="722" class="t-form" text-anchor="middle">시청 중</text>

  <text x="60"  y="734" class="t-form">③ 영역 확장성</text>
  <text x="260" y="734" class="t-form" text-anchor="middle" fill="#16a34a">✅ 없음 (지적호기심=정적, 이것=동적)</text>
  <text x="430" y="734" class="t-form" text-anchor="middle">월간 신규 카테고리 진입 이벤트</text>
  <text x="640" y="734" class="t-form" text-anchor="middle">시간축 변화율</text>

  <text x="60"  y="746" class="t-form">④ 주의 지속성</text>
  <text x="260" y="746" class="t-form" text-anchor="middle" fill="#16a34a">✅ 없음 (깊이몰입=길이선호, 이것=완주율)</text>
  <text x="430" y="746" class="t-form" text-anchor="middle">완주율 / 이탈 타임스탬프</text>
  <text x="640" y="746" class="t-form" text-anchor="middle">시청 중</text>

  <text x="60"  y="758" class="t-form">⑤ 성찰 전환력</text>
  <text x="260" y="758" class="t-form" text-anchor="middle" fill="#16a34a">✅ 없음 (완전 새 신호)</text>
  <text x="430" y="758" class="t-form" text-anchor="middle">시청 후 검색 / 저장 / 연관 탐색</text>
  <text x="640" y="758" class="t-form" text-anchor="middle">시청 후</text>

  <rect x="36" y="762" width="792" height="1" fill="#e2e8f0"/>
  <text x="60"  y="750" class="t-form">⑥ 발견 주도성</text>

  <!-- ══════════════════════════════════════════════════════════
       BOTTOM 2 — 종합 해석 + 소비 사이클 흐름도
  ══════════════════════════════════════════════════════════ -->

  <rect x="26" y="778" width="814" height="122" rx="10" fill="#fafafa" stroke="#e2e8f0"/>
  <text x="433" y="796" class="t-sec" text-anchor="middle" fill="#1e293b">소비 행동 사이클 — 6축이 커버하는 흐름</text>

  <!-- 흐름도 -->
  <!-- BEFORE -->
  <rect x="48"  y="804" width="80" height="36" rx="8" fill="#fde68a"/>
  <text x="88"  y="819" class="t-badge" text-anchor="middle" fill="#92400e">소비 전</text>
  <text x="88"  y="831" class="t-form" text-anchor="middle" fill="#92400e">발견 주도성</text>
  <!-- arrow -->
  <line x1="132" y1="822" x2="152" y2="822" stroke="#94a3b8" stroke-width="1.5" marker-end="url(#arr-sm)"/>
  <polygon points="150,819 156,822 150,825" fill="#94a3b8"/>

  <!-- DURING1 -->
  <rect x="158" y="804" width="116" height="36" rx="8" fill="#e0e7ff"/>
  <text x="216" y="819" class="t-badge" text-anchor="middle" fill="#4f46e5">소비 중 (선택)</text>
  <text x="216" y="831" class="t-form" text-anchor="middle" fill="#4f46e5">관점 다양성 · 비판 수용성</text>
  <!-- arrow -->
  <polygon points="276,819 282,822 276,825" fill="#94a3b8"/>
  <line x1="274" y1="822" x2="282" y2="822" stroke="#94a3b8" stroke-width="1.5"/>

  <!-- DURING2 -->
  <rect x="284" y="804" width="116" height="36" rx="8" fill="#ccfbf1"/>
  <text x="342" y="819" class="t-badge" text-anchor="middle" fill="#0d9488">소비 중 (공간)</text>
  <text x="342" y="831" class="t-form" text-anchor="middle" fill="#0d9488">영역 확장성 · 주의 지속성</text>
  <!-- arrow -->
  <polygon points="402,819 408,822 402,825" fill="#94a3b8"/>
  <line x1="400" y1="822" x2="408" y2="822" stroke="#94a3b8" stroke-width="1.5"/>

  <!-- AFTER -->
  <rect x="410" y="804" width="80" height="36" rx="8" fill="#fde68a"/>
  <text x="450" y="819" class="t-badge" text-anchor="middle" fill="#92400e">소비 후</text>
  <text x="450" y="831" class="t-form" text-anchor="middle" fill="#92400e">성찰 전환력</text>
  <!-- arrow -->
  <polygon points="492,819 498,822 492,825" fill="#94a3b8"/>
  <line x1="490" y1="822" x2="498" y2="822" stroke="#94a3b8" stroke-width="1.5"/>

  <!-- 이 사람 요약 -->
  <rect x="506" y="800" width="322" height="90" rx="8" fill="white" stroke="#e2e8f0"/>
  <text x="667" y="816" class="t-sec" text-anchor="middle" fill="#1e293b">이 사람 종합 판독</text>
  <text x="518" y="830" class="t-form">6축 평균: <tspan font-weight="700" fill="#dc2626">36점</tspan> — 인지주권 낮음</text>
  <text x="518" y="843" class="t-form">최저: 성찰 전환력(28) · 발견 주도성(31)</text>
  <text x="518" y="856" class="t-form">→ 보고 끝내기 + 추천만 클릭 패턴</text>
  <text x="518" y="869" class="t-form" fill="#4f46e5">Navigator: 소비 후 행동 유도 퀘스트 우선</text>
  <text x="518" y="882" class="t-form" fill="#4f46e5">+ 검색 탐색 챌린지 + 장편 완주 루틴</text>

</svg>
